<svg xmlns="http://www.w3.org/2000/svg" viewBox="0 0 108.178 20.678"><path d="M36.738 14.22v-1.166c0-3.772 2.18-6.262 6.621-6.262 4.191 0 6.024 2.517 6.024 6.207v2.123h-8.566c.084 1.813.906 2.622 3.171 2.622a11.735 11.735 0 004.332-.809l.738 2.765a13.377 13.377 0 01-5.243.977c-5.152.001-7.077-2.546-7.077-6.457zm4.077-1.724h4.925v-.335c0-1.458-.593-2.6-2.381-2.6-1.838-.001-2.544 1.147-2.544 2.932zm14.129 5.872v2.011h-3.85V.393l4.075-.364v8.886a4.056 4.056 0 013.788-2.123c3.735 0 5.549 2.8 5.539 6.517v.838c0 3.72-1.8 6.512-5.532 6.512a4.172 4.172 0 01-4.02-2.291zm.221-5.341v1.4c0 1.911.907 3.077 2.574 3.077 1.952 0 2.689-1.4 2.689-3.271v-1.009c0-1.872-.735-3.271-2.689-3.271-1.667-.003-2.574 1.17-2.574 3.074zm-44.681 1.121v-.852c0-3.715 1.8-6.512 5.535-6.512a4.006 4.006 0 013.879 2.33V7.073h3.906V20.38h-3.906v-2.011a3.962 3.962 0 01-3.879 2.291c-3.751 0-5.535-2.797-5.535-6.512zm4.1-.9v.95c0 1.986.724 3.3 2.621 3.3 1.672 0 2.52-1.2 2.52-3.1v-1.344c0-1.9-.848-3.1-2.52-3.1-1.883-.002-2.618 1.312-2.618 3.296zm66.063.809v-.67c0-3.829 2.2-6.6 6.7-6.6s6.708 2.768 6.7 6.6v.67c0 3.831-2.207 6.6-6.7 6.6s-6.698-2.769-6.698-6.598zm4.077-.948v1.228c0 1.763.735 3.162 2.621 3.162s2.622-1.414 2.622-3.162v-1.228c0-1.761-.738-3.159-2.622-3.159s-2.618 1.412-2.618 3.161zm-18.854.948v-.67c0-3.829 2.2-6.6 6.7-6.6s6.708 2.768 6.7 6.6v.67c0 3.831-2.207 6.6-6.7 6.6s-6.697-2.769-6.697-6.598zm4.077-.948v1.228c0 1.763.738 3.162 2.622 3.162s2.621-1.414 2.621-3.162v-1.228c0-1.761-.737-3.159-2.621-3.159s-2.619 1.412-2.619 3.161zm-44.619.92v-.615c0-4.077 2.182-6.624 6.963-6.624a7.524 7.524 0 013.906.9l-.906 2.849a6.468 6.468 0 00-2.715-.613c-2.21 0-3.171 1.257-3.173 3.408v.779c0 2.153.963 3.412 3.173 3.412a6.5 6.5 0 002.715-.615l.906 2.852a7.523 7.523 0 01-3.906.893c-4.78-.002-6.96-2.546-6.96-6.624zm78.517 6.346l-4.188-6.512v6.512H95.58V.393l4.077-.36v13.389l4.021-6.346h4.33l-4.219 6.571 4.387 6.733zm-101.1-.009V10.357H0V7.072h2.747V5.093c0-3.326 1.357-5.089 5.152-5.089a19.683 19.683 0 012.375.139v3.1H8.463c-1.273 0-1.643.558-1.643 1.788V7.07h3.4l-.337 3.3H6.824v10.009z" fill="#8da291"/></svg>