<svg xmlns="http://www.w3.org/2000/svg" viewBox="0 0 94.222 31.014"><path d="M58.934 26.449l2.962-1.233a4.283 4.283 0 003.9 2.749c2.555 0 4.138-1.576 4.138-4.543v-1.115h-.12a5.276 5.276 0 01-4.08 1.761 7.671 7.671 0 01-7.426-7.718 7.7 7.7 0 017.426-7.778 5.368 5.368 0 014.08 1.731h.12V9.042h3.23v13.913c0 5.723-3.374 8.06-7.366 8.06a7.38 7.38 0 01-6.864-4.566zm2.791-10.1a4.448 4.448 0 004.315 4.668c2.316 0 4.138-1.967 4.138-4.668 0-2.731-1.821-4.726-4.138-4.726a4.481 4.481 0 00-4.315 4.727zm-20.18-.028a7.637 7.637 0 017.775-7.75 7.635 7.635 0 017.775 7.75 7.655 7.655 0 01-7.775 7.75 7.656 7.656 0 01-7.775-7.749zm3.4 0a4.479 4.479 0 004.371 4.7 4.483 4.483 0 004.372-4.7 4.465 4.465 0 00-4.372-4.7 4.464 4.464 0 00-4.367 4.701zm-20.175 0a7.634 7.634 0 017.773-7.75 7.636 7.636 0 017.775 7.75 7.656 7.656 0 01-7.775 7.75 7.654 7.654 0 01-7.769-7.749zm3.4 0a4.481 4.481 0 004.372 4.7 4.482 4.482 0 004.371-4.7 4.464 4.464 0 00-4.371-4.7 4.466 4.466 0 00-4.366 4.701zm51.752 0c0-4.61 3.316-7.75 7.311-7.75a7.194 7.194 0 016.63 4.931l.354.879-10.361 4.29a3.944 3.944 0 003.757 2.349 4.423 4.423 0 003.815-2.145l2.641 1.761a7.711 7.711 0 01-6.456 3.434 7.581 7.581 0 01-7.685-7.753zm3.374-.234l6.927-2.877a3 3 0 00-2.877-1.641 4.25 4.25 0 00-4.044 4.514zm-83.3-4.05A12.2 12.2 0 0112.206.003a11.459 11.459 0 018.245 3.316l-2.319 2.319a8.379 8.379 0 00-5.931-2.347 8.631 8.631 0 00-8.63 8.745 8.631 8.631 0 008.63 8.745 8.06 8.06 0 006.079-2.407 6.819 6.819 0 001.779-4.071h-7.858v-3.286h11.082A11.032 11.032 0 0123.448 13a10.869 10.869 0 01-2.849 7.692 11.007 11.007 0 01-8.394 3.374A12.2 12.2 0 01.002 12.034zm75.178 11.562V.888h3.318v22.703zM73.168 9.041zm0 0z" fill="#8da291"/></svg>