<svg xmlns="http://www.w3.org/2000/svg" viewBox="0 0 189.364 45.46"><path d="M8.068 32.3c-.1 6.672-.288 9.936-.288 11.184s.288 1.636 2.112 1.636c2.784 0 4.08-.72 4.08-2.064 0-1.2-.1-4.176-.1-15.744V16.56c1.2-.48 1.488-.816 1.488-1.248 0-.528-.48-.912-3.216-1.968a57.48 57.48 0 004.9-7.872c1.728-.528 2.16-.912 2.16-1.584s-.48-1.056-7.488-3.792a26.037 26.037 0 01-.912 3.456C8.024 11.664 3.892 20.064.052 24.384c-.192.192.192.528.432.384a40.257 40.257 0 007.728-6.72zm20.064-6c0-3.456-3.264-6.864-9.984-7.824-.288-.048-.48.384-.24.528 2.256 1.536 3.168 3.936 3.312 7.728.1 2.448 1.3 3.888 3.168 3.888 2.016.004 3.744-1.532 3.744-4.32zm9.7-13.248v-8.88c1.68-.72 1.968-1.1 1.968-1.632 0-.864-1.3-1.3-8.4-2.112.336 2.736.432 4.7.432 12.624h-10.9c-1.3 0-3.408-.1-5.664-.336l.432 1.632c2.3-.24 4.272-.336 5.232-.336h10.892V36.1c0 2.016-.576 2.5-2.208 2.64-1.008.1-2.592.192-5.808.192-.288 0-.288.432 0 .528 3.888 1.2 5.04 2.928 5.52 4.56.24.912.72 1.1 1.68 1.1a11.684 11.684 0 003.648-.672c1.968-.672 3.456-2.64 3.456-6 0-1.824-.288-11.184-.288-19.488v-4.944h7.968a.431.431 0 00.48-.48c0-.384-.1-.576-1.584-2.064-2.448-2.448-2.64-2.544-3.12-2.544-.528 0-.672.1-3.408 4.128zm20.64-4.7v5.52h-1.448c-1.008 0-2.736-.048-5.76-.336l.432 1.632a52.114 52.114 0 015.328-.336H71.86c.624 0 .816-.192.816-.528 0-.384-.1-.528-1.44-1.872-1.584-1.584-1.728-1.68-2.064-1.68-.288 0-.432.048-2.832 3.12h-2.116v-5.52h8.832c.624 0 .768-.192.768-.528s-.144-.624-1.92-2.352c-1.344-1.3-1.632-1.488-2.016-1.488s-.432.1-2.976 3.408h-2.688V3.84c1.248-.624 1.68-1.056 1.68-1.584 0-.576-.432-1.056-7.68-1.824.144 2.016.24 3.84.24 6.432v.528h-3.068c-1.008 0-2.736-.048-5.76-.336l.432 1.632a52.114 52.114 0 015.328-.336zm6.048 21.072a7.626 7.626 0 013.068 5.376c.288 1.632 1.008 2.544 2.544 2.544a3.02 3.02 0 002.976-3.216c0-2.256-2.5-5.088-8.592-5.328v-.384c.912-.432 1.152-.672 1.2-1.056h7.344c.336 0 .528-.192.528-.576 0-.336-.144-.672-1.536-2.064-1.828-1.82-2.208-2.02-2.496-2.02-.336 0-.528.144-3.168 3.7h-11.28a42.3 42.3 0 01-5.376-.384l.48 1.68a34.713 34.713 0 014.8-.336h3.792c.1 1.2.1 1.776.1 2.5v1.056c-.576-.48-2.064-1.056-5.52-2.448-.144.96-.384 2.064-.528 2.592a28.177 28.177 0 01-4.564 10.46.259.259 0 00.332.38 26.345 26.345 0 009.268-9.4 3.441 3.441 0 001.008-.432v5.472a1.5 1.5 0 01-1.488 1.728 26.892 26.892 0 01-3.072.192c-.288 0-.384.336-.1.432a5.183 5.183 0 013.5 3.648c.24.96.528 1.2 1.152 1.2a7.694 7.694 0 003.7-.864c1.492-.776 2.116-2.068 2.116-4.276 0-.768-.192-5.376-.192-9.408zM78.196 11.9h9.5a84.015 84.015 0 01-1.632 6.288c-.1.288.1.432.336.288 2.256-1.392 3.216-2.016 4.464-2.736a6.822 6.822 0 012.592-.912c1.2-.192 1.584-.528 1.584-1.152 0-.72-.144-1.008-2.064-2.88-2.832-2.736-3.072-2.784-3.552-2.784-.432 0-.576.1-3.072 2.928h-7.628a51.554 51.554 0 002.976-7.1c1.68-.432 1.824-.72 1.824-1.3s-.96-1.056-7.92-2.544c-.144 1.92-.24 2.688-.432 4.032-.768 6.048-2.4 12.624-4.32 16.368 0-.288-.144-.48-1.392-1.68-2.016-1.916-2.208-2.016-2.544-2.016-.384 0-.48.1-3.024 3.36h-6.624a42.3 42.3 0 01-5.376-.384l.48 1.68a36.844 36.844 0 014.9-.336h13.244c-.24.384-.48.768-.72 1.1-.192.24.144.528.384.336a35.591 35.591 0 007.152-8.976c0 .864 0 1.584-.048 2.448C76.852 35.04 70.9 41.76 62.836 44.832c-.288.1-.144.528.144.48 10.608-2.256 18.192-8.688 19.536-24.528l.1-.912v.912a77.2 77.2 0 00.96 13.3 22.844 22.844 0 004.128 9.888c.384.48.624.624.96.624.288 0 .48-.1 1.152-.912 1.1-1.3 2.928-3.168 4.992-3.7.288-.048.288-.288.048-.432a24.793 24.793 0 01-7.968-8.64 33.356 33.356 0 01-3.792-14.688c1.056-.528 1.392-.912 1.392-1.344 0-.672-.528-1.1-6.672-2.256zm47.328-10.124c1.248.864 2.016 2.352 2.3 4.608q.36 3.024 2.88 3.024a3.167 3.167 0 003.216-3.264c0-2.64-2.5-4.9-8.208-4.9-.288.004-.428.388-.188.532zm14.592 9.744c.48 0 .72-.24.72-.624 0-.336-.192-.624-1.728-2.112-2.352-2.256-2.592-2.4-3.072-2.4-.528 0-.672.048-3.7 4.176h-8.688a85.097 85.097 0 01-.384-6.288c1.488-.672 1.776-1.008 1.776-1.536 0-.816-.48-1.152-7.728-1.968.288 1.776.432 3.168.672 6.1.1 1.248.24 2.5.336 3.7H108.1c-.48-.432-2.016-.96-7.1-2.016a88.7 88.7 0 01.424 11.128c0 16.22-1.532 21.168-4.7 24.864-.192.24.048.48.288.336 5.76-3.744 10.032-11.616 10.032-23.424v-.624h5.568a46.628 46.628 0 01-1.2 9.7c-.336 1.344-1.056 2.256-2.16 2.352a20.572 20.572 0 01-3.36.1.242.242 0 00-.048.48c1.872.528 2.544 1.632 2.928 3.5.192.816.672 1.008 1.632 1.008a7.058 7.058 0 005.952-4.372c.816-1.968 1.392-4.512 1.824-11.184 1.2-.864 1.344-1.008 1.344-1.488 0-.384-.192-.624-1.584-1.776-2.352-1.92-2.544-1.968-3.072-1.968-.48 0-.576.048-2.736 2.688h-5.088v-7.728a4.234 4.234 0 001.056-.624h10.368a64.4 64.4 0 003.648 16.128 32.647 32.647 0 001.44 3.216 34.207 34.207 0 01-13.532 12.864c-.24.144 0 .576.288.48 6.048-1.824 10.944-4.128 15.84-9.024A26.863 26.863 0 00132.916 42a7.544 7.544 0 004.368 1.44 3.106 3.106 0 003.168-3.168 5.578 5.578 0 00-.72-2.5 5.593 5.593 0 01-.48-2.064 45.051 45.051 0 012.064-6.672c.1-.288-.192-.432-.384-.192-3.36 4.42-4.8 5.956-5.664 5.956a2.207 2.207 0 01-1.392-.528 20.854 20.854 0 01-3.84-4.08 45.056 45.056 0 005.712-11.04c1.392-.336 1.824-.672 1.824-1.248 0-.672-.432-1.056-7.2-4.32-.288 1.488-.576 2.976-.912 4.272a61.059 61.059 0 01-2.352 7.248 48.719 48.719 0 01-3.36-13.584zm18.336-2.5c.768-.336 1.1-.576 1.1-1.056h7.44a.543.543 0 00.528-.576c0-.384-.24-.672-1.728-2.16-2.16-2.16-2.448-2.352-2.88-2.352-.384 0-.528.192-3.36 4.128h-8.976a39.176 39.176 0 01-5.184-.336l.48 1.632a33.1 33.1 0 014.7-.336h1.728a40.071 40.071 0 01.144 4.368V28.8c-1.536.336-3.024.624-4.32.864a25.073 25.073 0 01-3.216.48c2.88 6.72 3.36 7.584 3.984 7.584.432 0 1.152-.336 1.44-1.968 4.992-2.64 12.336-6.96 16.608-9.84.24-.144 0-.576-.288-.48-2.16.576-5.136 1.344-8.208 2.016zm17.52 4.416c.144-2.832.192-6 .192-9.648 1.632-.816 1.824-1.3 1.824-1.728 0-.72-1.056-1.392-8.112-2.016.24 1.248.288 2.592.288 8.448 0 1.776 0 3.408-.048 4.944h-3.264a42.3 42.3 0 01-5.376-.384l.48 1.68a36.843 36.843 0 014.9-.336h3.216c-.384 9.7-1.68 14.88-3.984 19.152-2.688 4.992-7.344 9.6-11.76 11.472-.288.1 0 .48.288.432a30.521 30.521 0 0015.5-9.888c3.5-4.416 5.232-9.648 5.808-21.168h5.952c-.1 9.5-.288 15.744-1.2 21.12-.48 2.88-1.584 3.456-3.216 3.552-1.008.048-3.168.1-6.1-.048-.288 0-.288.384 0 .48 3.888 1.44 5.232 2.448 5.76 4.56.24.912.528 1.152 1.3 1.152 4.848 0 7.3-2.3 8.256-7.1.72-3.552 1.1-9.6 1.248-21.744 1.2-.96 1.44-1.248 1.44-1.632s-.144-.672-1.968-2.16c-2.3-1.92-2.544-2.016-2.976-2.016s-.624.144-3.12 2.88z" fill="#3f5d45"/></svg>