<svg xmlns="http://www.w3.org/2000/svg" viewBox="0 0 89.098 327.787"><path d="M30.309 327.786a4.5 4.5 0 01-4.465-4.524 4.5 4.5 0 014.513-4.476 4.5 4.5 0 014.487 4.5 4.425 4.425 0 01-1.3 3.22 4.432 4.432 0 01-3.115 1.283zm0-7.78a3.277 3.277 0 00-3.274 3.277 3.277 3.277 0 003.274 3.275 3.275 3.275 0 003.276-3.275 3.242 3.242 0 00-.946-2.33 3.247 3.247 0 00-2.3-.951zm-5.295-11.6c-.542-1.943-1.55-2.951-4.249-3.67-.216-.073-.216-.4 0-.4a45.794 45.794 0 005.184 0c1.152-.071 1.909-.576 2.2-2.844.359-2.769.755-7.377.685-17.422h-7.343a31.257 31.257 0 01-5.726 6.77c-.18.143-.4-.109-.287-.289 1.514-2.3 3.1-7.7 3.924-12.454.143-.938.252-1.477.322-2.448 5.726 1.44 6.015 1.764 6.015 2.3 0 .4-.289.649-1.513 1.008a36.906 36.906 0 01-2.3 4.392l6.439.009c1.8-2.157 1.909-2.23 2.3-2.23.43 0 .612.073 2.592 1.691 1.042.865 1.151 1.008 1.151 1.4 0 .359-.146.5-1.151 1.333.034 10.006-.216 15.8-.9 18.789-.792 3.491-2.915 4.931-6.228 4.931-.756.002-.936-.174-1.115-.863zm-23-3.015c0-.972.289-7.593.289-11.985 0-5.543.034-8.135-.146-10.907 1.584.432 2.665.758 3.384 1.008.18-1.8.325-3.168.433-5.04.036-.646.036-1.149.036-2.157 4.858.972 5.577 1.188 5.577 1.834 0 .359-.286.758-1.4 1.081a84.745 84.745 0 01-3.418 4.858h3.887c1.475-1.8 1.62-1.907 1.909-1.907.4 0 .539.036 1.943 1.261 1.475 1.258 1.584 1.438 1.584 1.764s-.073.4-1.081 1.188v3.914c0 7.416.25 12.06.25 12.959 0 1.115-.9 1.62-2.732 1.62-1.334 0-1.584-.18-1.584-1.4v-1.766H6.157v3.457c0 1.115-.9 1.62-2.521 1.62-1.335.005-1.619-.143-1.619-1.395zm4.142-4.4h4.785v-7.846H6.156zm0-15.624v7.056h4.787v-7.625l-4.032-.007c-.07.187-.286.331-.755.583zm14.579 10.631c-.146-2.808-.5-4.644-2.089-5.976-.18-.146-.034-.36.18-.325 4.715.648 6.841 3.24 6.841 5.869 0 2.05-1.225 3.1-2.809 3.1-1.257-.007-2.015-.799-2.123-2.668zM3.559 264.784c0-.972.255-7.594.255-15.478 0-5.436-.036-7.773-.182-9.719 3.889.792 5.076 1.258 5.4 1.657h5.869v-.109c0-3.923-.037-6.3-.146-8.278 5.616.469 6.083.685 6.083 1.3 0 .357-.359.61-1.222 1.079v6.012h6.482c1.909-2.053 2.053-2.162 2.376-2.162s.722.219 2.448 1.55c1.188.935 1.477 1.258 1.477 1.547s-.182.576-1.08 1.188v6.479c0 7.666.216 13.139.216 14.074 0 1.081-1.008 1.8-3.1 1.8-1.618 0-1.834-.253-1.834-1.331v-1.657H8.21v1.657c0 1.044-.865 1.729-3.1 1.729-1.302-.006-1.55-.188-1.55-1.339zm16.059-2.776h6.981v-10.326h-6.981zm-11.409 0h6.7v-10.326h-6.7zm0-19.577v8.531h6.7v-9H9.001a1.778 1.778 0 01-.792.468zm11.411 8.526h6.979v-9H19.62zm48.419-7.414v-36h1.154v36zm-59.5-23.147c1.764.18 3.384.25 4.426.25h7.775v-6.588h-3.274a22.62 22.62 0 00-3.637.253l-.323-1.224a37.131 37.131 0 003.96.253h3.274v-6.624h-2.592v.758c0 1.4-.756 1.87-2.482 1.87-1.334 0-1.657-.216-1.657-1.331 0-.576.181-4.681.181-11.086 0-3.493-.037-4.824-.181-6.947 3.384.755 4.463 1.079 4.788 1.44h8.458c1.584-1.693 1.728-1.766 2.053-1.766.4 0 .576.073 2.376 1.513 1.4 1.151 1.511 1.261 1.511 1.618 0 .325-.144.469-1.151 1.333v4.246c0 4.319.216 7.885.216 8.677 0 1.044-.755 1.727-2.951 1.727-1.261 0-1.55-.216-1.55-1.331v-.721h-2.771v6.624h2.378c2.123-2.7 2.34-2.915 2.662-2.915.287 0 .612.18 2.2 1.654 1.3 1.188 1.367 1.4 1.367 1.657s-.144.323-.359.323h-8.249v6.588h3.527c2.269-2.951 2.376-3.024 2.664-3.024s.5.073 2.27 1.657c1.367 1.224 1.511 1.4 1.511 1.729a.315.315 0 01-.091.266.329.329 0 01-.269.093H12.965c-.828 0-2.376.071-4.066.253zm16.447-14.4h2.771v-6.408h-2.771zm-6.838 0h2.592v-6.408h-2.592zm6.838-13.139v6.012h2.771v-6.731h-2.123c-.04.216-.22.469-.653.719zm-6.838-.18v6.192h2.592v-4.931c0-.758-.036-1.3-.073-1.8h-1.87a2.171 2.171 0 01-.653.54zM.437 212.442a15.864 15.864 0 002.3-.107l2.087-.289v-8.891a28.3 28.3 0 00-3.563.253l-.323-1.224a36.421 36.421 0 003.889.25v-5.83a32.824 32.824 0 00-.109-3.311 27.836 27.836 0 00-3.743.253l-.318-1.229a32.8 32.8 0 004.174.253h3.675c2.016-2.555 2.089-2.592 2.339-2.592s.4.071 1.873 1.62c.972 1.008 1.081 1.115 1.081 1.331a.382.382 0 01-.123.266.367.367 0 01-.277.093h-3.6c0 .323-.252.576-.828.828v8.315c1.657-2.3 1.729-2.376 1.979-2.376.287 0 .4.034 1.512 1.3 1.044 1.151 1.117 1.3 1.117 1.475 0 .216-.146.325-.4.325H8.971v8.276c1.909-.325 3.78-.649 5.58-1.044.216-.036.359.289.18.4a105.818 105.818 0 01-10.69 6.117c-.144 1.261-.467 1.55-.792 1.55-.584.001-.979-.325-2.816-6.011zm67.606-4.9v-36h1.154v36zm-42.8-29.15a27.409 27.409 0 00-5.076-3.527c-4.1 3.457-9.826 4.931-18.43 4.644-.217 0-.253-.359-.037-.359 6.442-.5 11.556-2.446 15.01-5.939a33.086 33.086 0 00-4.645-1.477l-1.008 1.44a2.386 2.386 0 01-2.123 1.033c-1.584 0-3.059-.323-3.059-.974a1.471 1.471 0 01.4-.792c1.62-2.087 2.987-3.957 4.178-5.794h-4.9a36.291 36.291 0 00-4.5.253l-.323-1.224a43.221 43.221 0 004.824.25h5.363a57.573 57.573 0 002.34-4 15.706 15.706 0 00.719-1.55H8.651v.146c0 1.511-.9 1.98-2.808 1.98-1.151 0-1.4-.216-1.4-1.261 0-.432.144-2.665.144-4.465 0-1.943 0-3.6-.107-5.038 3.777.9 4.749 1.188 4.965 1.657h2.376v-3.889h-4.9a49.457 49.457 0 00-5.507.253l-.325-1.224a56.728 56.728 0 005.832.253h20.771c2.482-2.954 2.556-2.99 2.915-2.99s.469.036 2.2 1.586c1.4 1.258 1.511 1.4 1.511 1.727a.34.34 0 01-.095.3.35.35 0 01-.3.1h-10.4c-.037.18-.287.357-.54.539v3.354h2.809c1.872-2.016 1.979-2.089 2.3-2.089.36 0 .576.073 2.3 1.4 1.261.972 1.333 1.079 1.333 1.438 0 .323-.072.432-1.044 1.224v.758c0 1.764.18 4 .18 4.353 0 1.008-.862 1.657-2.951 1.657-1.478 0-1.728-.287-1.728-1.3v-.466H15.028c3.6.972 4.209 1.4 4.209 1.943 0 .469-.4.755-1.727 1.151-.469.755-.972 1.584-1.511 2.448h11.482c2.482-3.024 2.662-3.2 3.021-3.2s.578.107 2.378 1.764c1.368 1.261 1.548 1.477 1.548 1.729 0 .287-.146.432-.4.432H23.774c2.3.469 2.7.792 2.7 1.151 0 .432-.25.612-1.583 1.008a27.274 27.274 0 01-2.23 3.454 16.966 16.966 0 015.614 2.159c1.477.938 2.052 1.693 2.052 3.024a2.406 2.406 0 01-2.339 2.2 3.675 3.675 0 01-2.752-1.25zM12.5 171.113a78.67 78.67 0 015.65.4 13.969 13.969 0 001.584-2.662 19.211 19.211 0 00.862-2.2h-5.074c-.978 1.437-1.984 2.984-3.029 4.461zm10.475-11.446h3.2v-5.543h-3.2zm-7.2 0h3.168v-5.543h-3.168zm-7.129-5.045v5.045h3.168v-5.543H9.258a5.126 5.126 0 01-.619.497zm7.129-4.608v3.388h3.168v-3.887h-2.628c-.042.143-.294.323-.547.498zm56.056 11.712c0-.573.181-4.426.181-9.935a53.13 53.13 0 00-.144-5.577c3.058.9 4.1 1.258 4.462 1.618h.539v-11.278a59.727 59.727 0 00-.25-7.02c5.072.359 5.614.828 5.614 1.368 0 .36-.253.612-1.261 1.081v6.692h1.94c2.087-2.772 2.34-2.988 2.665-2.988.359 0 .719.253 2.123 1.657 1.151 1.151 1.333 1.368 1.333 1.654 0 .253-.182.4-.469.4h-7.6v8.424h1.333c1.618-2.125 1.8-2.232 2.123-2.232.433 0 .792.216 2.123 1.368 1.4 1.224 1.62 1.4 1.62 1.764s-.18.539-1.114 1.331v3.636c0 2.735.18 5.9.18 7.307 0 1.081-1.261 1.693-2.918 1.693-1.258 0-1.437-.182-1.437-1.368v-1.223h-6.979v1.3c0 1.115-.612 1.729-2.665 1.729-1.306 0-1.407-.182-1.407-1.401zm4.064-12.786v10.438h6.981V148.54h-6.549a1.61 1.61 0 01-.439.399zm-20.726 13.464a1.758 1.758 0 01-.585-1.338c0-.542.253-.972 1.188-1.873a5.237 5.237 0 001.656-4.066c0-.221.323-.18.433 0a8.232 8.232 0 011.26 4.715 2.8 2.8 0 01-2.558 2.988 1.748 1.748 0 01-.234.016 1.742 1.742 0 01-1.167-.442zm4.74-1.95c0-.466.07-.935.144-1.691a5.127 5.127 0 00-.722-3.853c-.144-.18.109-.25.325-.18a5.07 5.07 0 013.784 4.715c0 1.657-.828 2.521-2.2 2.521a1.5 1.5 0 01-1.339-1.512zm4.321-1.151a6.476 6.476 0 00-2.34-5.038c-.18-.146.073-.255.287-.218 4.03.86 5.365 2.881 5.365 4.933a1.868 1.868 0 01-.453 1.45 1.869 1.869 0 01-1.381.637c-.979-.001-1.484-.757-1.484-1.769zm3.848-1.115a5.152 5.152 0 00-3.24-4.462c-.178-.107-.07-.287.146-.287 4.863.1 6.524 2.369 6.524 4.424h-.01c0 1.117-.539 2.2-1.87 2.2-.727-.003-1.409-.472-1.557-1.876zm-13.453-7.236a22.948 22.948 0 002.34-.036c1.656-.071 3.1-.18 4.462-.25v-2.99h-1.586a27.933 27.933 0 00-3.673.253l-.359-1.261a31.476 31.476 0 004.032.289h1.584v-4.176h-2.556v.9c0 1.044-.648 1.333-1.909 1.333-1.187 0-1.331-.146-1.331-1.044 0-.719.18-4 .18-8.893 0-2.986 0-4.066-.109-5.254 2.521.755 3.42 1.224 3.743 1.547h7.705c1.225-1.657 1.331-1.729 1.584-1.729.216 0 .4.036 1.766 1.151 1.115.938 1.3 1.117 1.3 1.44 0 .253-.072.359-.972 1.115v3.1c0 2.735.217 5.4.217 6.3 0 1.188-.612 1.62-2.521 1.62-.792 0-.936-.253-.936-1.151v-.432h-2.7v4.176h1.184c1.837-2.232 2.017-2.412 2.269-2.412.323 0 .433.036 1.8 1.331.972.938 1.115 1.151 1.115 1.4s-.106.4-.359.4h-6.01v2.7c2.123-.216 4.1-.469 6.3-.755a.168.168 0 01.2.112.168.168 0 01-.091.209 102.927 102.927 0 01-14 5c-.216.755-.466.972-.792.972-.553.001-.878-.574-1.884-4.966zm12.518-14.541c-.719 1.079-1.475 2.2-2.592 3.887v1.764h3.024v-5.939c-.113.075-.257.18-.439.287zm-8.273 5.65h2.878v-3.1a1.521 1.521 0 01-1.439 1.3c-.646 0-.972-.539-.972-1.188 0-.466.106-1.044.18-1.836a3.185 3.185 0 00-.646-2.3zm5.687-9.4v6.515c.287-1.224.539-2.735.683-3.6.109-.61.146-1.042.216-1.691a13.065 13.065 0 012.126 1.151v-2.951h-2.48c-.05.22-.194.327-.553.58zm-5.687-.171v1.934a4.028 4.028 0 012.878 3.1v-3.852c0-.469 0-1.044-.036-1.584h-2.269a3.889 3.889 0 01-.581.41zm-33.523 3.124a3.077 3.077 0 00-2.125-2.23v.755c0 .865-.72 1.333-3.2 1.333-.864 0-1.044-.253-1.044-1.154 0-.357.109-4.319.109-7.521 0-.972 0-1.729-.037-2.376h-2.441a1.343 1.343 0 01-.4.359v1.977c0 3.24.107 6.913.107 7.38 0 .865-.72 1.333-2.952 1.333-1.114 0-1.3-.253-1.3-1.154 0-.357.106-4.246.106-7.559 0-.972 0-1.654-.036-2.339H9.906a5.288 5.288 0 01-.612.539v1.37c0 4.749.036 7.989.036 8.565 0 .972-.685 1.477-2.842 1.477-1.227 0-1.4-.289-1.4-1.115 0-.792.18-4.788.18-8.172 0-1.657-.037-2.844-.144-4.572 3.42.646 4.5.862 4.824 1.188h4c.253-1.154.5-2.162.722-3.313h-8.9a34.529 34.529 0 00-4.282.253l-.359-1.224c1.87.18 3.49.253 4.642.253h22.5c2.229-2.558 2.448-2.774 2.771-2.774.286 0 .575.182 2.05 1.513 1.3 1.188 1.44 1.368 1.44 1.657 0 .18-.106.323-.4.323H20.388c0 .4-.18.539-1.117.719a106.75 106.75 0 01-3.348 2.594h9.575c1.8-1.909 1.907-1.98 2.267-1.98.4 0 .578.034 2.7 1.511.719.5.9.685.9 1.008 0 .289-.071.432-.972 1.261v1.98c0 3.238.108 4.785.108 5.254a3.424 3.424 0 01-2.052 3.347 6.8 6.8 0 01-2.2.4c-.587.003-.767-.25-.91-.862zm-2.232-10.838l.007 2.016c0 2.23.036 4.749.07 6.189a17.569 17.569 0 002.269-.107.6.6 0 00.542-.612v-7.848h-2.487c-.045.15-.189.22-.41.366zm48.742-6.374c0-1.006.325-5.507.325-17.1v-3.488h-1.686c.5.576.575.755.575 1.008 0 .323-.18.432-.719.432H64.7v7.163h.216c1.69-2.089 1.8-2.2 2.123-2.2.359 0 .578.107 2.2 1.547 1.115.972 1.334 1.261 1.334 1.584s-.073.432-1.081 1.261v1.873c0 2.733.18 5 .18 6.01 0 1.081-1.331 1.836-2.592 1.836-1.331 0-1.654-.323-1.654-1.511v-.819h-5.334v1.654c0 1.115-.936 1.729-2.626 1.729-1.3 0-1.547-.18-1.547-1.4 0-.578.216-3.962.216-7.6 0-2.3 0-3.743-.109-5.507 2.771.683 4 1.149 4.429 1.547h.18V99.26h-2.053a22.613 22.613 0 00-3.637.253l-.323-1.224a37.115 37.115 0 003.96.253h2.05v-2.521c0-1.618 0-2.626-.036-3.491a71.84 71.84 0 01-6.189.287c-.216 0-.289-.36-.072-.4a44.014 44.014 0 0011.159-4.428 6.057 6.057 0 001.114-.792c3.853 2.772 4.319 3.347 4.319 3.959 0 .576-.5.612-2.337.469-1.045.143-2.089.287-3.1.4a.336.336 0 01.036.182c0 .36-.216.466-.828.792v5.543h1.151c1.909-2.844 2.053-2.881 2.3-2.881.289 0 .433.107 1.693 1.44h2.339a94.972 94.972 0 00-.289-10.331c4.5.612 5.616 1.042 5.616 1.513 0 .537-.323.79-1.188 1.295v7.523h4a86.818 86.818 0 00-.284-10.292c4.428.542 5.937.972 5.937 1.44s-.323.828-1.3 1.224v7.628c1.514-2.808 1.729-3.022 1.945-3.022s.36.071 1.332 1.368c1.08 1.475 1.151 1.582 1.151 1.907s-.18.469-.612.469h-3.816v3.238c0 11.662.18 15.012.18 16.773 0 1.044-.719 1.729-2.806 1.729-1.4 0-1.729-.216-1.729-1.4v-2.125h-4v2.016c0 1.224-1.117 1.657-2.811 1.657-1.44-.003-1.658-.363-1.658-1.305zm4.472-3.095h4v-9.25h-4zm-16.236-7.771v7.739h5.327v-8.135h-4.858a2.882 2.882 0 01-.478.4zm16.236-2.2h4v-7.523h-4zm-61.2 12.349c0-.685.217-4.1.217-8.242H6.239a4.99 4.99 0 01.109 1.042c0 2.018-.937 4.069-3.024 4.069a2.053 2.053 0 01-1.641-.53 2.052 2.052 0 01-.659-1.593 2.579 2.579 0 011.153-2.159c1.543-1.115 2.332-2.052 2.332-3.668 0-.216.217-.216.362-.034a6.463 6.463 0 011.186 2.157h9.289a21.172 21.172 0 00-.109-2.986H9.66a36.511 36.511 0 00-3.926.253l-.359-1.224c1.873.18 3.167.25 4.285.25h15.368c1.98-2.519 2.2-2.592 2.52-2.592.289 0 .433.036 1.979 1.368 1.37 1.151 1.44 1.368 1.44 1.62 0 .216-.144.323-.4.323H20.53c0 .253-.217.432-.722.648v2.339h8.064c1.837-2.053 2.087-2.23 2.376-2.23.323 0 .719.143 2.771 1.87 1.367 1.151 1.654 1.62 1.654 2.232 0 .43-.43.719-1.4.792a3.881 3.881 0 00-1.728.466c-.685.362-1.477.828-3.276 1.766-.178.107-.323 0-.25-.216a35.805 35.805 0 00.935-3.959h-9.146v.323c0 3.67.18 7.056.18 7.739 0 .862-.685 1.331-3.023 1.331-1.449.003-1.846-.357-1.846-1.149zm5.438-1.875a27.34 27.34 0 003.2.18h2.269c1.477-1.8 1.62-1.873 1.872-1.873.144 0 .433.073 1.691 1.154.828.683.9.862.9 1.079 0 .253-.106.359-.323.359h-6.405c-.722 0-1.8.036-2.917.146zm-15.7 0a26.627 26.627 0 003.131.18h2.3c1.4-1.727 1.514-1.8 1.728-1.8.182 0 .435.073 1.4.972.828.755.936 1.008.936 1.224a.282.282 0 01-.08.243.283.283 0 01-.243.08H8.002c-.648 0-1.69.036-2.842.146zm15.735-3.564a20.722 20.722 0 002.734.18h.433c1.4-1.727 1.548-1.763 1.728-1.763s.359.07 1.331 1.008c.828.828.9.935.9 1.151a.291.291 0 01-.08.243.285.285 0 01-.243.08h-4.069c-.611 0-1.333.036-2.448.143zm-13.934 0a25.652 25.652 0 003.1.18h.469c1.4-1.727 1.548-1.763 1.728-1.763s.323.036 1.4 1.008c.828.719.9.935.9 1.151a.285.285 0 01-.079.243.286.286 0 01-.244.08H9.766c-.611 0-1.69.036-2.808.143zm8.314-20.2c0-1.008.181-6.119.181-13.605v-2.125A45.945 45.945 0 01.439 85.785c-.216.07-.43-.325-.25-.432 5.254-3.168 13.173-12.095 16.7-19.078a24.117 24.117 0 001.042-2.269H6.741c-1.261 0-2.665.073-4.718.253l-.359-1.224c2.376.18 3.816.253 5.077.253h19.364c2.879-3.347 3.024-3.454 3.384-3.454.4 0 .542.07 2.592 1.941 1.334 1.19 1.62 1.586 1.62 1.836s-.18.4-.469.4H21.57c2.77.612 3.1 1.079 3.1 1.44 0 .466-.4.755-1.511.9a34.756 34.756 0 01-3.568 5.254c.936.25 1.042.5 1.042.755 0 .359-.106.5-.862.9v5.184c0 6.624.323 12.167.323 13.392 0 1.042-1.187 1.584-3.276 1.584-1.376.001-1.842-.288-1.842-1.367zM28.77 82.004c-1.334-3.889-4.142-7.885-7.452-9.828a.2.2 0 01-.066-.234.2.2 0 01.212-.125c7.593.828 12.85 5.473 12.85 9.5 0 2.2-1.261 3.277-2.771 3.277-1.31.004-2.133-.713-2.779-2.583zm39.39-10.081c0-1.907.106-2.521 8.528-13.535h-4.183a24.686 24.686 0 00-3.524.253l-.361-1.224a29.24 29.24 0 003.889.253h4.109c2.051-2.269 2.2-2.341 2.556-2.341.4 0 .612.109 2.05 1.333 1.62 1.4 1.8 1.657 1.8 1.98 0 .469-.033.61-2.662 1.943-6.515 7.487-7.632 9.034-7.632 9.826s.146 1.115 5.4 1.115c3.816 0 5.257-.432 6.085-1.258a15.046 15.046 0 002.843-5.507c.072-.218.286-.146.286.071-.18 2.951-.214 3.959-.214 4.428a2.842 2.842 0 00.576 1.584 3.276 3.276 0 01.575 1.907c0 1.691-1.081 2.879-10.834 2.879-8.286.007-9.294-1.392-9.294-3.7zm-12.531-5.177c0-1.008.144-6.7.144-11.878 0-4.141 0-6.155-.144-8.244 3.418.865 4.462 1.368 4.787 1.8h1.548c1.438-1.87 1.584-1.98 1.907-1.98.359 0 .469 0 2.052 1.3 1.368 1.115 1.475 1.3 1.475 1.62 0 .357-.07.466-1.042 1.3v3.766c0 5.9.216 8.531.216 9.466 0 1.117-.721 1.764-2.987 1.764-.937 0-1.225-.359-1.225-1.4v-.792h-2.735v3.061c0 1.079-.974 1.547-2.917 1.547-.763.009-1.086-.171-1.086-1.323zm4-17.105v13.1l2.731.007v-13.6h-1.939a3.053 3.053 0 01-.804.5zm7.055 8.6c1.151-1.907 3.061-7.414 3.959-12.345a24.357 24.357 0 00.4-2.808c5.759 1.331 6.082 1.691 6.082 2.123 0 .576-.253.755-1.62 1.188a38.729 38.729 0 01-2.771 4.968h8.888c2.665-3.491 2.809-3.6 3.168-3.6s.573.073 2.556 2.089c1.222 1.224 1.4 1.438 1.4 1.764s-.144.469-.612.469h-15.87a37.345 37.345 0 01-5.22 6.369.186.186 0 01-.136.053c-.157.01-.315-.124-.236-.259zm-66.6-8.79c2.412-1.8 5.688-7.018 7.343-12.993.216-.828.359-1.4.539-2.269 5.291 1.807 5.541 1.984 5.541 2.489 0 .466-.144.612-1.367.972a16.744 16.744 0 01-1.943 3.564 5.837 5.837 0 003.167 2.519 12.532 12.532 0 002.2.612v-7.523c0-1.331 0-2.448-.106-3.709H5.771a32.45 32.45 0 00-4.1.253l-.362-1.224c1.873.18 3.313.253 4.465.253h21.485c2.485-3.168 2.556-3.2 2.918-3.2s.466 0 2.448 1.907c1.3 1.224 1.4 1.3 1.4 1.657a.367.367 0 01-.116.273.359.359 0 01-.284.086H20.961c-.036.25-.216.432-.791.719v5.111h4.353c2.378-2.986 2.448-3.022 2.771-3.022.4 0 .469.036 2.376 1.836 1.225 1.149 1.3 1.222 1.3 1.547a.331.331 0 01-.094.268.331.331 0 01-.269.091H20.168v5.109c1.224.034 2.664.071 4.318.071a64.809 64.809 0 0010.115-.576c.216-.036.25.287.07.4a5.4 5.4 0 00-2.806 4.023 1.065 1.065 0 01-1.008.938 49.805 49.805 0 01-5.65.107c-5.543 0-9.036-.828-11.376-2.342a8.685 8.685 0 01-4.032-5.614 25.218 25.218 0 01-9.5 7.992.239.239 0 01-.075.012.191.191 0 01-.148-.326zm63.359-19.795c0-1.331.073-4.03.073-5.47a25.776 25.776 0 00-.216-3.527c4.821.43 5.507.826 5.507 1.3 0 .323-.217.539-1.081 1.008v4.638c0 1.261.362 1.513 3.637 1.513 4.032 0 5.074-.4 6.119-1.438.974-.974 1.729-2.342 2.7-5.04.073-.216.323-.18.323.034-.143 2.341-.25 3.709-.25 4.465a2.2 2.2 0 00.683 1.691 2.366 2.366 0 01.756 1.62c0 1.584-1.115 2.808-10.545 2.808-7.033.009-7.713-.89-7.713-3.591zm-7.368 1.431a2.371 2.371 0 01-.734-1.718 2.927 2.927 0 011.511-2.558 5.5 5.5 0 003.061-5.145c0-.218.289-.218.4-.039a14.036 14.036 0 011.331 5.976 3.909 3.909 0 01-1.024 2.885 3.9 3.9 0 01-2.79 1.256h-.107a2.377 2.377 0 01-1.656-.646zm-48.614-1c0-.649.106-3.527.106-7.812 0-1.8 0-4.032-.106-5.507 3.957.792 4.931 1.188 5.184 1.511h9.539c1.69-1.943 1.8-2.016 2.2-2.016.361 0 .542.036 2.378 1.4 1.547 1.151 1.62 1.3 1.62 1.62 0 .287-.073.36-.937 1.079v3.24c0 3.131.18 4.642.18 5.291 0 1.044-1.078 1.62-3.2 1.62-1.44 0-1.693-.216-1.693-1.261v-.685H11.999v1.156c0 1.044-.9 1.513-2.951 1.513-1.272.017-1.595-.238-1.595-1.138zm4.535-2.232h10.727v-4.141H11.996zm.575-8.856a3.552 3.552 0 01-.575.4v3.593h10.727v-4zm72.971 10.508c-1.225 0-2.16-.828-2.3-2.448-.252-2.665-.974-4.5-2.558-5.725a.175.175 0 01-.07-.225.178.178 0 01.214-.1c4.569.471 7.484 2.594 7.484 5.545a2.678 2.678 0 01-.713 2.109 2.68 2.68 0 01-1.956.846zm-13.323-3.356a1.871 1.871 0 01-.61-1.429c-.325-2.089-1.008-3.384-2.232-4.212-.18-.107-.106-.323.109-.323 4.9-.036 6.66 1.943 6.66 3.923a2.444 2.444 0 01-.689 1.779 2.451 2.451 0 01-1.759.742 1.855 1.855 0 01-.212.012 1.875 1.875 0 01-1.275-.478zm-10.687-7.05c0-.685.073-2.483.18-6.551v-.685a22.034 22.034 0 01-7.271 5.866c-.18.109-.432-.18-.252-.321 2.484-1.946 5.363-7.452 6.191-11.125h-1.379a28.3 28.3 0 00-3.673.253l-.359-1.258a31.837 31.837 0 004.032.287h2.7c0-3.061 0-3.78-.144-5.58 5.111.4 5.364.612 5.364 1.224 0 .36-.18.685-1.334 1.117v3.243h.325c1.691-2.483 1.8-2.555 2.123-2.555s.4.036 1.62 1.368c1.04 1.117 1.118 1.261 1.118 1.509s-.109.4-.362.4h-4.824v2.23c3.457.109 5.147 1.8 5.147 3.673a1.9 1.9 0 01-.525 1.509 1.917 1.917 0 01-1.491.578c-.972 0-1.547-.5-1.654-1.727a4.87 4.87 0 00-1.477-3.493c.036 7.7.146 9.182.146 9.792 0 .972-1.081 1.4-2.628 1.4-1.328.011-1.581-.275-1.581-1.14zm9.609-.139c-.036-.539.144-3.889.144-9.719 0-5.616-.036-6.731-.18-8.278 3.637.828 4.715 1.115 4.968 1.511h5.074c1.586-1.8 1.7-1.873 2.019-1.873.4 0 .539.073 2.053 1.261 1.547 1.224 1.656 1.4 1.656 1.729s-.109.43-1.008 1.258v3.6c0 6.911.144 9.4.144 9.755 0 1.008-1.117 1.477-3.061 1.477-1.115 0-1.4-.289-1.4-1.224v-1.044h-6.16v.972c0 1.008-.9 1.547-2.771 1.547-1.198.014-1.448-.309-1.485-.958zm4.249-2.271h6.155v-4.139H75.39zm0-4.856h6.155V7.876H75.39zm.539-8.638a1.9 1.9 0 01-.539.25v3.707h6.155V3.192z" fill="#3f5d45"/></svg>