<svg xmlns="http://www.w3.org/2000/svg" viewBox="0 0 220.487 41"><path d="M12.714 38.928a19.917 19.917 0 01-6.355-4.286 19.951 19.951 0 01-4.286-6.358A19.849 19.849 0 01.5 20.5a19.852 19.852 0 011.572-7.786 19.942 19.942 0 014.286-6.356 19.884 19.884 0 016.355-4.286A19.878 19.878 0 0120.5.5a19.863 19.863 0 017.785 1.572 19.9 19.9 0 016.356 4.286 19.942 19.942 0 014.286 6.356A19.868 19.868 0 0140.5 20.5a19.865 19.865 0 01-1.57 7.784 19.951 19.951 0 01-4.286 6.358 19.932 19.932 0 01-6.356 4.286A19.9 19.9 0 0120.5 40.5a19.915 19.915 0 01-7.786-1.572zm.2-36.4a19.436 19.436 0 00-6.2 4.18 19.425 19.425 0 00-4.18 6.2A19.385 19.385 0 001 20.5a19.385 19.385 0 001.533 7.591 19.425 19.425 0 004.18 6.2 19.43 19.43 0 006.2 4.178A19.335 19.335 0 0020.5 40a19.35 19.35 0 007.591-1.533 19.46 19.46 0 006.2-4.178 19.42 19.42 0 004.178-6.2A19.385 19.385 0 0040 20.5a19.385 19.385 0 00-1.533-7.591 19.42 19.42 0 00-4.178-6.2 19.466 19.466 0 00-6.2-4.18A19.387 19.387 0 0020.5 1a19.373 19.373 0 00-7.591 1.531zm.583 34.555a17.951 17.951 0 01-5.722-3.859 17.906 17.906 0 01-3.856-5.721A17.872 17.872 0 012.5 20.5a17.857 17.857 0 011.414-7.006A17.906 17.906 0 017.77 7.773a17.951 17.951 0 015.722-3.859A17.914 17.914 0 0120.5 2.5a17.891 17.891 0 017.006 1.415 17.946 17.946 0 015.721 3.859 17.946 17.946 0 013.859 5.721A17.892 17.892 0 0138.5 20.5a17.907 17.907 0 01-1.414 7.006 17.946 17.946 0 01-3.859 5.721 17.946 17.946 0 01-5.721 3.859A17.891 17.891 0 0120.5 38.5a17.915 17.915 0 01-7.008-1.415zm-1.048-6.257a9.987 9.987 0 003.944.768 10.142 10.142 0 006.543-2.041 5.912 5.912 0 002.342-4.527 5.864 5.864 0 00-2.4-4.724l-2.609-2.344c-1.131-1.014-2.23-2.162-2.23-4.018 0-2.124 1.847-3.608 4.487-3.608a5.379 5.379 0 012.975.911 3.462 3.462 0 011.541 2.931 5.811 5.811 0 01-.24 1.651l-.025.079h.355l2.021-5.6-.438-.087a1.051 1.051 0 01-1.058.761 5.477 5.477 0 01-1.722-.4 9.83 9.83 0 00-3.408-.658 9.025 9.025 0 00-5.371 1.647 5.044 5.044 0 00-2.224 4.043c0 2.249 1.159 3.761 2.9 5.338l2.082 1.9a4.65 4.65 0 011.76 3.637 4.387 4.387 0 01-1.428 3.392 5.906 5.906 0 01-4 1.3 6.065 6.065 0 01-3.321-1.023 3.628 3.628 0 01-1.7-3.025 4.919 4.919 0 01.378-1.714v-.017h-.382l-2.083 5.836.413.089a1.159 1.159 0 011.114-.938 4.963 4.963 0 011.779.444zm16.64-10.532h0a3.621 3.621 0 01-.745 1.178l-.107.139a3.854 3.854 0 01-.141.189 1.959 1.959 0 00-.542 1.133.789.789 0 00.853.784.89.89 0 00.919-.919 5.613 5.613 0 00-.087-.738l-.031-.2a4.226 4.226 0 01-.058-1.5l.008-.054a5.6 5.6 0 01.788 1.554c.245.67.422 1.153 1.118 1.153a.907.907 0 00.869-.936c0-.382-.259-.674-.771-.869a9.466 9.466 0 01-1.954-.952 5 5 0 01.554-.031 8.893 8.893 0 011.2.1c.064.006.129.017.193.027a3.77 3.77 0 00.541.054.846.846 0 00.936-.867.918.918 0 00-.869-.921 2.179 2.179 0 00-1.236.72 3.774 3.774 0 01-1.336.853 4.115 4.115 0 01.836-1.321c.046-.06.1-.122.146-.187a1.96 1.96 0 00.539-1.133.788.788 0 00-.851-.784.89.89 0 00-.921.919 5.637 5.637 0 00.092.739l.024.2a4.283 4.283 0 01.068 1.556 5.636 5.636 0 01-.79-1.548c-.251-.672-.432-1.16-1.133-1.16a.9.9 0 00-.867.936c0 .382.26.674.768.869a8.8 8.8 0 011.954.952 4.987 4.987 0 01-.556.031 8.831 8.831 0 01-1.2-.1 7.346 7.346 0 01-.2-.027 3.528 3.528 0 00-.537-.056.847.847 0 00-.934.869.916.916 0 00.867.917 2.151 2.151 0 001.236-.718 3.945 3.945 0 011.353-.851zM50.65 32.525a1.423 1.423 0 00-1.367 1.151l-.5-.108 2.556-7.163h.467a6.1 6.1 0 00-.467 2.124c0 3.276 3.491 4.966 6.155 4.966 4.213 0 6.659-2.34 6.659-5.759a5.749 5.749 0 00-2.16-4.464l-2.556-2.34c-2.268-2.052-3.563-3.925-3.563-6.551 0-3.925 4.176-6.985 9.324-6.985 3.133 0 4.681 1.3 6.3 1.3a1.286 1.286 0 001.294-.936l.542.108-2.485 6.875h-.432a7.231 7.231 0 00.323-2.124c0-3.311-3.2-4.715-5.543-4.715-3.17 0-5.51 1.763-5.51 4.427 0 2.232 1.3 3.637 2.736 4.933l3.205 2.879c1.729 1.548 2.952 3.1 2.952 5.8 0 4.068-4.033 8.064-10.908 8.064-3.972-.007-5.156-1.479-7.027-1.479zm136.369-4.141c0-4.319 4.823-10.8 10.223-10.8 2.556 0 4.607 1.008 4.607 2.952 0 3.888-6.7 4.537-8.6 4.537a11.309 11.309 0 01-1.512-.073 17.216 17.216 0 00-1.008 5.149c0 2.34 1.116 3.168 2.771 3.168 3.2 0 5.077-2.774 5.761-3.744l.431.288c-.469.682-2.521 4.1-6.769 4.1-3.607.006-5.91-2.334-5.91-5.574zm4.9-3.888a9.106 9.106 0 001.079.073c3.24 0 5.473-2.162 5.473-4.9 0-1.046-.54-1.585-1.369-1.585-2.494.007-4.402 3.932-5.193 6.416zm-16.272 6.767a6.1 6.1 0 01.467-2.122l3.89-10.584h-3.1l.143-.5h3.1l1.332-3.529h3.707l-1.294 3.529h3.707l-.108.5h-3.745l-4.1 11.339a6.615 6.615 0 00-.469 2.124 1.06 1.06 0 001.116 1.116c1.55 0 2.809-1.909 3.24-2.917l.4.18a5.29 5.29 0 01-5.111 3.564c-1.961.004-3.185-.931-3.185-2.696zm-15.048-.575a1.957 1.957 0 012.017-2.124 1.086 1.086 0 011.151 1.116c0 .72-.431 1.475-.431 2.195a1.547 1.547 0 001.763 1.585 2.993 2.993 0 003.168-2.736 3.81 3.81 0 00-.863-2.591l-1.728-2.27a5.685 5.685 0 01-1.439-3.456c0-2.556 3.022-4.823 6.12-4.823 2.122 0 3.923 1.081 3.923 2.772a1.723 1.723 0 01-1.836 1.909 1.36 1.36 0 01-1.475-1.4c0-.828.612-1.151.612-1.728s-.432-1.043-1.262-1.043a2.667 2.667 0 00-2.879 2.483 4.565 4.565 0 001.189 3.025l2.124 2.772a4.631 4.631 0 01.971 2.666c0 3.238-4 4.931-6.7 4.931-2.312-.004-4.436-1.192-4.436-3.279zm-8.821.936a7.252 7.252 0 01.324-1.871h-.071c-1.188 1.62-3.275 4.211-5.9 4.211-2.27 0-3.96-1.62-3.96-4.68 0-5.869 6.624-11.7 10.908-11.7a2.375 2.375 0 012.413 2.34h.036l.685-1.871h3.742l-3.923 10.908a10.621 10.621 0 00-.757 3.24c0 .575.253.936.792.936 1.766 0 2.952-2.448 3.205-3.025l.4.18a5.343 5.343 0 01-5.114 3.672c-1.709.003-2.79-.897-2.79-2.337zm-5.9-.4c0 1.4.288 1.981 1.153 1.981 1.906 0 5.039-3.817 5.543-5.292l1.836-4.968a8.451 8.451 0 00.647-2.521 1.9 1.9 0 00-1.906-2.16c-3.578.008-7.287 8.899-7.287 12.967zm-15.119.035a6.1 6.1 0 01.467-2.122l3.89-10.584h-3.1l.143-.5h3.1l1.332-3.529h3.707l-1.294 3.529h3.707l-.108.5h-3.745l-4.1 11.339a6.628 6.628 0 00-.469 2.124 1.06 1.06 0 001.116 1.116c1.55 0 2.809-1.909 3.241-2.917l.4.18a5.29 5.29 0 01-5.111 3.564c-1.966.008-3.19-.927-3.19-2.692zM114.63 28.38c0-4.319 4.825-10.8 10.225-10.8 2.556 0 4.607 1.008 4.607 2.952 0 3.888-6.7 4.537-8.6 4.537a11.309 11.309 0 01-1.512-.073 17.2 17.2 0 00-1.008 5.149c0 2.34 1.116 3.168 2.771 3.168 3.2 0 5.076-2.774 5.759-3.744l.434.288c-.469.682-2.521 4.1-6.769 4.1-3.617.01-5.921-2.33-5.921-5.57zm4.9-3.888a9.188 9.188 0 001.081.073c3.24 0 5.472-2.162 5.472-4.9 0-1.046-.542-1.585-1.369-1.585-2.502.011-4.414 3.936-5.203 6.42zM99.047 28.38c0-4.319 4.825-10.8 10.225-10.8 2.556 0 4.607 1.008 4.607 2.952 0 3.888-6.7 4.537-8.6 4.537a11.3 11.3 0 01-1.51-.073 17.217 17.217 0 00-1.01 5.149c0 2.34 1.118 3.168 2.773 3.168 3.2 0 5.077-2.774 5.759-3.744l.434.288c-.469.682-2.521 4.1-6.769 4.1-3.623.01-5.928-2.33-5.928-5.57zm4.9-3.888a9.188 9.188 0 001.081.073c3.24 0 5.473-2.162 5.473-4.9 0-1.046-.542-1.585-1.369-1.585-2.507.011-4.416 3.936-5.209 6.42zm-17.531 9.217a3.265 3.265 0 00.432-1.658 4.752 4.752 0 00-.647-2.016l-.936-2.014c-.216-.469-.434-.938-.612-1.4-.685.647-1.4 1.224-2.089 1.763l-1.8 1.477c-1.116.936-1.728 1.475-2.45 2.195a10.381 10.381 0 00-1.583 1.909l-.432-.251a3.265 3.265 0 00.432-1.658 4.786 4.786 0 00-.647-2.016l-.937-2.014a8.8 8.8 0 01-.971-3.348c0-2.521 1.872-4.753 4.392-6.769l.72-.575.324.4a5.572 5.572 0 00-2.125 4.5c0 1.62 1.008 3.96 1.8 5.616a5.633 5.633 0 01.685 2.052c3.491-2.844 4.75-4.788 4.75-7.02 0-1.475-.828-2.052-.828-3.491a1.862 1.862 0 012.016-1.8 1.923 1.923 0 011.836 1.116l.936-.792.72-.575.326.4a5.566 5.566 0 00-2.125 4.5c0 1.62 1.008 3.96 1.8 5.616a5.633 5.633 0 01.685 2.052c3.491-2.844 4.537-4.788 4.537-7.02 0-1.475-.83-2.052-.83-3.491a1.862 1.862 0 012.017-1.8c1.62 0 2.2 1.44 2.2 2.809 0 3.276-2.879 6.012-5.33 7.991l-1.8 1.477c-1.116.936-1.728 1.475-2.448 2.195a10.406 10.406 0 00-1.584 1.909zm122.652-12.961c0-1.116.863-2.016 1.475-2.844a9.149 9.149 0 001.835-2.844 8.284 8.284 0 00-2.915 1.836c-.9.792-1.765 1.55-2.664 1.55a1.981 1.981 0 01-1.873-1.981 1.818 1.818 0 012.016-1.871 12.424 12.424 0 011.583.18 15.1 15.1 0 003.782.143 19.52 19.52 0 00-4.213-2.052c-1.224-.469-1.655-1.153-1.655-1.873a1.96 1.96 0 011.871-2.014c2.521 0 1.909 2.915 4.141 5.831a9.273 9.273 0 00-.143-3.348 17.16 17.16 0 01-.253-2.016 1.909 1.909 0 011.981-1.979 1.7 1.7 0 011.836 1.691c0 1.116-.865 2.016-1.477 2.844a8.845 8.845 0 00-1.8 2.844 8.134 8.134 0 002.882-1.836c.9-.792 1.763-1.548 2.664-1.548a1.977 1.977 0 011.871 1.979 1.818 1.818 0 01-2.014 1.873 12.4 12.4 0 01-1.585-.18 14.892 14.892 0 00-3.78-.143 19.636 19.636 0 004.211 2.052c1.224.467 1.658 1.151 1.658 1.871a1.963 1.963 0 01-1.873 2.016c-2.521 0-1.872-2.917-4.1-5.831a8.9 8.9 0 00.108 3.348 17.111 17.111 0 01.251 2.014 1.91 1.91 0 01-1.979 1.981 1.7 1.7 0 01-1.865-1.686z" fill="#3f5d45" stroke="transparent"/></svg>