<svg xmlns="http://www.w3.org/2000/svg" viewBox="0 0 114.145 17.736"><path d="M0 17.448l.336.072a.952.952 0 01.916-.768c1.248 0 2.04.984 4.68.984 4.584 0 7.272-2.664 7.272-5.376a4.813 4.813 0 00-1.972-3.86L9.096 6.58a4.339 4.339 0 01-1.824-3.292c0-1.776 1.56-2.952 3.672-2.952 1.56 0 3.7.936 3.7 3.144a4.807 4.807 0 01-.216 1.416h.288L16.372.312l-.36-.072a.859.859 0 01-.864.624c-1.08 0-2.112-.864-4.2-.864-3.432 0-6.216 2.04-6.216 4.656 0 1.752.864 3 2.376 4.368l1.7 1.56a3.832 3.832 0 011.444 2.976c0 2.28-1.636 3.84-4.444 3.84-1.776 0-4.104-1.128-4.104-3.312a4.051 4.051 0 01.312-1.416h-.312zm25.368.264a6.929 6.929 0 011.056-1.272c.48-.48.888-.84 1.632-1.464l1.2-.984c1.632-1.32 3.552-3.144 3.552-5.328 0-.912-.384-1.872-1.464-1.872A1.241 1.241 0 0030 7.992c0 .96.552 1.344.552 2.328 0 1.488-.7 2.784-3.024 4.68a3.755 3.755 0 00-.456-1.368 10.479 10.479 0 01-1.2-3.744 3.715 3.715 0 011.416-3l-.216-.264-.48.384-.624.528a1.282 1.282 0 00-1.224-.744 1.241 1.241 0 00-1.344 1.2c0 .96.552 1.344.552 2.328 0 1.488-.84 2.784-3.168 4.68a3.755 3.755 0 00-.456-1.368 10.479 10.479 0 01-1.2-3.744 3.715 3.715 0 011.416-3l-.216-.264-.48.384c-1.68 1.344-2.928 2.832-2.928 4.512a5.868 5.868 0 00.648 2.232l.624 1.348a3.17 3.17 0 01.432 1.34 2.173 2.173 0 01-.288 1.1l.288.168a6.929 6.929 0 011.056-1.268c.48-.48.888-.84 1.632-1.464l1.2-.984c.456-.36.936-.744 1.392-1.176.12.312.264.624.408.936l.624 1.348a3.17 3.17 0 01.432 1.34 2.173 2.173 0 01-.288 1.1zm16.3-2.928c-.456.648-1.7 2.5-3.84 2.5-1.1 0-1.848-.552-1.848-2.112a11.47 11.47 0 01.672-3.436 7.61 7.61 0 001.008.048c1.272 0 5.736-.432 5.736-3.024 0-1.3-1.368-1.968-3.072-1.968-3.6 0-6.816 4.32-6.816 7.2a3.639 3.639 0 003.932 3.72 5.43 5.43 0 004.512-2.736zm-.528-6.6a3.371 3.371 0 01-3.648 3.264 6.013 6.013 0 01-.724-.048c.528-1.656 1.8-4.272 3.456-4.272.552 0 .912.36.912 1.056zm10.92 6.6c-.456.648-1.7 2.5-3.84 2.5-1.1 0-1.848-.552-1.848-2.112a11.47 11.47 0 01.672-3.432 7.61 7.61 0 001.008.048c1.272 0 5.736-.432 5.736-3.024 0-1.3-1.368-1.968-3.072-1.968-3.6 0-6.816 4.32-6.816 7.2a3.639 3.639 0 003.932 3.716 5.43 5.43 0 004.512-2.736zm-.528-6.6a3.371 3.371 0 01-3.648 3.264 6.013 6.013 0 01-.724-.048c.528-1.656 1.8-4.272 3.456-4.272.552 0 .912.36.912 1.056zM54.96 14.5a4.051 4.051 0 00-.308 1.412c0 1.176.816 1.8 2.112 1.8a3.527 3.527 0 003.408-2.376l-.264-.12c-.288.672-1.128 1.944-2.16 1.944a.707.707 0 01-.744-.744A4.436 4.436 0 0157.312 15l2.74-7.56h2.5l.072-.336h-2.48l.864-2.352h-2.472L57.652 7.1h-2.068l-.1.336h2.068zm19.152-7.4h-2.5l-.456 1.248h-.024a1.583 1.583 0 00-1.608-1.56c-2.856 0-7.272 3.888-7.272 7.8 0 2.04 1.128 3.12 2.64 3.12 1.76.004 3.148-1.724 3.94-2.808h.048a4.842 4.842 0 00-.216 1.248c0 .96.72 1.56 1.848 1.56a3.562 3.562 0 003.408-2.448l-.264-.12c-.168.384-.96 2.016-2.136 2.016-.36 0-.528-.24-.528-.624a7.07 7.07 0 01.5-2.16zm-4.92 6.58c-.336.984-2.424 3.528-3.7 3.528-.576 0-.768-.384-.768-1.32 0-2.712 2.472-8.64 4.848-8.64a1.268 1.268 0 011.28 1.44 5.626 5.626 0 01-.432 1.68zm11.832-6.552c.552 0 .84.312.84.7s-.408.6-.408 1.152a.907.907 0 00.984.936 1.149 1.149 0 001.224-1.276c0-1.128-1.2-1.848-2.616-1.848-2.064 0-4.08 1.512-4.08 3.216a3.79 3.79 0 00.96 2.3l1.152 1.512a2.542 2.542 0 01.572 1.732 2 2 0 01-2.108 1.824 1.032 1.032 0 01-1.176-1.056c0-.48.288-.984.288-1.464a.725.725 0 00-.768-.744 1.305 1.305 0 00-1.344 1.416c0 1.392 1.416 2.184 2.952 2.184 1.8 0 4.464-1.128 4.464-3.288a3.084 3.084 0 00-.648-1.776L79.896 10.8a3.046 3.046 0 01-.792-2.016 1.778 1.778 0 011.92-1.656zm3.864 7.372a4.051 4.051 0 00-.312 1.416c0 1.176.816 1.8 2.112 1.8a3.527 3.527 0 003.408-2.376l-.264-.12c-.288.672-1.128 1.944-2.16 1.944a.707.707 0 01-.744-.744A4.436 4.436 0 0187.24 15l2.736-7.56h2.5l.072-.336h-2.476l.864-2.352h-2.472L87.576 7.1h-2.064l-.1.336h2.064zm15.432.288c-.456.648-1.7 2.5-3.84 2.5-1.1 0-1.848-.552-1.848-2.112a11.47 11.47 0 01.672-3.432 7.61 7.61 0 001.008.048c1.272 0 5.736-.432 5.736-3.024 0-1.3-1.368-1.968-3.072-1.968-3.6 0-6.816 4.32-6.816 7.2a3.639 3.639 0 003.936 3.712 5.43 5.43 0 004.512-2.736zm-.528-6.6a3.371 3.371 0 01-3.648 3.264 6.013 6.013 0 01-.72-.052c.528-1.656 1.8-4.272 3.456-4.272.552 0 .912.36.912 1.056zm9.408-3.216a5.881 5.881 0 011.2-1.9 3.46 3.46 0 00.984-1.9A1.134 1.134 0 00110.16.044a1.273 1.273 0 00-1.32 1.32 11.5 11.5 0 00.168 1.344 6.142 6.142 0 01.1 2.232c-1.488-1.944-1.08-3.888-2.76-3.888a1.308 1.308 0 00-1.252 1.348c0 .48.288.936 1.1 1.248a13.033 13.033 0 012.808 1.368 9.982 9.982 0 01-2.52-.1 8.375 8.375 0 00-1.056-.12 1.212 1.212 0 00-1.344 1.248 1.319 1.319 0 001.248 1.32 3.139 3.139 0 001.776-1.032 5.5 5.5 0 011.944-1.224 6.1 6.1 0 01-1.224 1.9 3.46 3.46 0 00-.984 1.9 1.134 1.134 0 001.224 1.128 1.273 1.273 0 001.32-1.32 11.5 11.5 0 00-.168-1.344 5.961 5.961 0 01-.068-2.236c1.488 1.944 1.056 3.888 2.736 3.888a1.308 1.308 0 001.248-1.344c0-.48-.288-.936-1.1-1.248a13.033 13.033 0 01-2.808-1.368 9.982 9.982 0 012.52.1 8.375 8.375 0 001.056.12 1.212 1.212 0 001.344-1.248 1.319 1.319 0 00-1.248-1.32 3.139 3.139 0 00-1.776 1.032 5.419 5.419 0 01-1.924 1.22z" fill="#3f5d45"/></svg>