<svg xmlns="http://www.w3.org/2000/svg" viewBox="0 0 59.281 218.689"><path d="M20.134 218.688a3 3 0 01-2.976-3.015 3 3 0 013.008-2.985 3 3 0 012.992 3 2.957 2.957 0 01-.872 2.146 2.957 2.957 0 01-2.076.854zm0-5.186a2.181 2.181 0 00-2.184 2.183 2.183 2.183 0 002.184 2.185 2.182 2.182 0 002.183-2.183 2.154 2.154 0 00-.63-1.555 2.158 2.158 0 00-1.527-.633zm-10.822-7.265c-.434 0-.626-.169-.793-.626-.385-1.1-1.1-1.824-3.024-2.424-.144-.049-.144-.264 0-.264a22.608 22.608 0 003.291-.049c.79-.1 1.055-.48 1.055-1.126v-6.387H3.862c-.841 0-1.777.049-3.145.169l-.241-.816c1.583.121 2.545.167 3.386.167h5.975a28.347 28.347 0 00-.167-4.44 50.37 50.37 0 012.665.338A78.73 78.73 0 0015 186.506H6.31c-.841 0-1.777.049-3.145.169l-.241-.816c1.585.12 2.545.167 3.386.167h8.473c1.391-1.488 1.488-1.536 1.8-1.536.336 0 .454.049 2.039 1.37 1.3 1.08 1.439 1.247 1.439 1.583 0 .362-.118.408-1.727.744-1.775.985-3.217 1.8-4.994 2.786.648.167.721.313.721.5 0 .266-.1.387-1.057.89v2.519h4.609c1.921-2.4 2.088-2.519 2.3-2.519.265 0 .432.1 1.942 1.511.818.744 1.033 1.057 1.033 1.226s-.12.264-.312.264h-9.568c0 3.432.167 6.816.167 7.634a2.667 2.667 0 01-1.391 2.64 4.785 4.785 0 01-2.32.6zm-4.874-30.576c0-.382.1-3.119.1-9.937 0-6.287 0-7.249-.1-8.665 2.688.6 3.435.939 3.625 1.249l7-.007c1.37-1.608 1.465-1.68 1.683-1.68s.311.023 1.56.962c1.152.862 1.224.983 1.224 1.2 0 .239-.071.359-.79 1.031v5.115c0 7.367.144 9.648.144 10.176 0 .7-.554 1.152-2.208 1.152-1.058 0-1.25-.144-1.25-.89v-1.847h-7.8v1.784c0 .936-.626 1.247-1.97 1.247-1.001-.003-1.218-.151-1.218-.891zm3.191-2.621h7.8v-7.2h-7.8zm0-13.9v6.215h7.8v-6.575H8.06a1.467 1.467 0 01-.431.361zm37.656 3.388v-24h.767v24zM13.941 148.2c-.285-.936-1.006-1.729-2.686-2.327a.125.125 0 01-.1-.132.125.125 0 01.118-.109 15.228 15.228 0 002.64-.1c.577-.1.888-.382.888-1.126v-6.554h-1.536c-.552 0-1.585.049-2.714.167l-.238-.813c1.177.118 2.257.167 2.952.167h1.536v-.5c0-2.039-.046-3.984-.118-5.448.862.169 1.56.313 2.063.433a38.3 38.3 0 001.37-3.265h-4.8a18.385 18.385 0 00-2.447.169l-.241-.841a21.3 21.3 0 002.688.192h4.558c1.2-1.393 1.321-1.439 1.537-1.439.264 0 .385.021 1.823 1.175.96.769 1.058.913 1.058 1.177 0 .287-.072.359-1.321.672-1.055.744-2.137 1.511-3.458 2.352.937.287 1.057.48 1.057.672 0 .239-.144.48-.864.793v3.863h1.347c1.56-2.16 1.632-2.209 1.872-2.209s.336.049 1.321 1.1 1.031 1.126 1.031 1.344a.217.217 0 01-.062.178.21.21 0 01-.179.06h-5.33v.7c0 4.153.121 6.554.121 7.321a2.453 2.453 0 01-1.416 2.473 3.379 3.379 0 01-1.7.5c-.457.002-.624-.19-.77-.645zm-13.884.292a11.715 11.715 0 005.75-6.049 8.254 8.254 0 00-1.439-1.057l-.241 1.057c-.144.6-.648.913-1.487.913-.937 0-1.224-.241-1.224-.623a1.753 1.753 0 01.046-.336c.649-2.834 1.3-6.074 1.826-9.337h-.6a16.284 16.284 0 00-2.35.167l-.241-.816a19.393 19.393 0 002.591.167h.7c.238-1.488.479-3 .67-4.463a9.952 9.952 0 00.12-1.416c3.146.48 3.5.721 3.5 1.031 0 .287-.074.433-.864.7a336.844 336.844 0 01-.721 4.153H7.65c1.032-1.342 1.1-1.367 1.321-1.367.239 0 .334.026 1.439.89.839.647.888.742.888.983 0 .216-.049.287-.719.744a27.2 27.2 0 01-2.019 8.352 3.735 3.735 0 012.162 2.952 1.509 1.509 0 01-.389 1.117 1.512 1.512 0 01-1.076.491c-.6 0-.984-.313-1.271-1.057a10.846 10.846 0 00-.7-1.393c-1.608 2.137-3.889 3.458-7.129 4.44a.131.131 0 01-.041.007.136.136 0 01-.058-.252zm4.4-7.562a12.458 12.458 0 011.8.336 29.888 29.888 0 001.632-8.206H6.001c-.5 2.782-1.012 5.373-1.54 7.868zm40.824-2.4v-24h.767v24zm-27.937-18.574c-.5 0-.623-.121-.743-.577-.359-1.3-1.031-1.967-2.832-2.447-.144-.049-.144-.264 0-.264a30.725 30.725 0 003.457 0c.768-.049 1.272-.385 1.465-1.9a85.143 85.143 0 00.454-11.617h-4.9a20.881 20.881 0 01-3.817 4.514c-.118.1-.262-.072-.189-.192 1.008-1.536 2.063-5.138 2.613-8.3a15.7 15.7 0 00.218-1.631c3.815.959 4.007 1.177 4.007 1.536 0 .264-.191.431-1.008.672a23.874 23.874 0 01-1.536 2.927h4.3c1.2-1.439 1.272-1.485 1.536-1.485.29 0 .408.046 1.729 1.126.7.577.767.672.767.936 0 .241-.1.336-.767.89.022 6.672-.145 10.537-.6 12.528a3.8 3.8 0 01-3.764 3.308 3.849 3.849 0 01-.386-.024zm-16.08-2.6c0-.647.192-5.064.192-7.991 0-3.7.022-5.425-.1-7.272 1.057.287 1.774.5 2.257.672.118-1.2.216-2.114.287-3.36.023-.433.023-.769.023-1.441 3.24.649 3.72.793 3.72 1.226 0 .239-.19.5-.937.721a54.299 54.299 0 01-2.28 3.24h2.6c.982-1.2 1.08-1.272 1.272-1.272.262 0 .359.023 1.3.841.984.839 1.057.959 1.057 1.175s-.049.264-.721.793v2.619c0 4.945.166 8.042.166 8.642 0 .744-.6 1.08-1.823 1.08-.888 0-1.055-.12-1.055-.936v-1.177H4.029v2.3c0 .744-.6 1.08-1.68 1.08-.889-.007-1.081-.109-1.081-.945zm2.76-2.918h3.193V109.2H4.024zm.5-10.8c-.048.118-.192.216-.5.382v4.7h3.188v-5.087zm10.633 9.247c-.839 0-1.344-.531-1.416-1.775-.1-1.872-.336-3.1-1.393-3.984-.118-.1-.023-.239.12-.216 3.145.431 4.561 2.16 4.561 3.912a1.835 1.835 0 01-.461 1.462 1.835 1.835 0 01-1.355.6zm23.376-4.679c0-.623.1-2.255.144-5.856l.072-6.507a18.21 18.21 0 01-2.64 2.929c-.121.1-.29-.072-.218-.19 1.177-1.777 2.616-5.522 3.96-10.347.144-.552.288-1.129.408-1.729 3.168 1.177 3.553 1.49 3.553 1.8 0 .336-.216.577-1.08.816a28.716 28.716 0 01-2.111 3.988c1.271.526 1.534.744 1.534 1.008 0 .216-.144.382-.744.623v5.376c0 5.784.049 7.272.049 7.872 0 .672-.744 1.031-1.872 1.031-.903-.007-1.047-.197-1.047-.82zm5.328-.241c0-.647.169-4.44.169-14.257 0-3.624-.025-5.186-.12-6.48 2.326.526 3.07.839 3.263 1.1h7.344c1.178-1.37 1.226-1.4 1.49-1.4.238 0 .336 0 1.393.939.862.767.934.888.934 1.08 0 .216-.071.311-.623.793v4.32c0 9.191.144 12.841.144 13.464 0 .721-.721 1.2-2.064 1.2-.719 0-.911-.169-.911-.888v-.934h-8.257v.79c0 .7-.528 1.152-1.777 1.152-.808-.001-.977-.119-.977-.888zm2.765-18.843v17.307h8.252V88.8h-7.754a1.47 1.47 0 01-.49.313zm.98 15.249c0-.48.118-1.993.118-4.44 0-1.008 0-1.991-.072-3.265a22.36 22.36 0 011.824.577V93.66h-.072c-.431 0-1.2.046-2.326.167l-.241-.816a19.046 19.046 0 002.567.167h.072a35.735 35.735 0 00-.118-3.84c2.686.241 2.809.433 2.809.672 0 .192-.049.313-.5.552v2.616h.427c.913-1.365.984-1.416 1.129-1.416s.218.026.89.816c.525.626.574.746.574.864 0 .144-.1.218-.264.218h-2.761v3.791c.649-.913.744-1.008.937-1.008.167 0 .216 0 .937.672.7.647.721.721.721.888s-.049.218-.408.554v.959c0 2.473.1 3.961.1 4.392 0 .672-.431.962-1.583.962-.6 0-.721-.169-.721-.793v-.649h-1.854v.7c0 .626-.431.913-1.536.913-.495-.007-.641-.151-.641-.679zm2.183-6.1v4.681h1.85v-4.994h-1.49a.969.969 0 01-.348.299zm-37.992-8.042c0-.385.12-2.952.12-6.623a35.314 35.314 0 00-.1-3.722c2.042.6 2.735.839 2.976 1.08h.362v-7.511a40.057 40.057 0 00-.17-4.681c3.384.239 3.745.554 3.745.911 0 .241-.169.41-.841.723v4.463h1.3c1.391-1.849 1.56-1.993 1.775-1.993.241 0 .479.169 1.416 1.1.77.767.888.911.888 1.1 0 .167-.118.264-.311.264h-5.066v5.615h.89c1.08-1.416 1.2-1.488 1.416-1.488.288 0 .526.146 1.416.913.937.816 1.08.936 1.08 1.175s-.12.362-.744.89v2.424c0 1.824.121 3.937.121 4.874 0 .718-.842 1.126-1.944 1.126-.842 0-.962-.118-.962-.911v-.816h-4.655V90c0 .744-.408 1.152-1.775 1.152-.857 0-.933-.12-.933-.936zm2.714-8.519v6.962h4.653v-7.224h-4.366a1.042 1.042 0 01-.279.252zM.69 90.692a1.174 1.174 0 01-.392-.895c0-.359.169-.647.792-1.247a3.491 3.491 0 001.1-2.714c.009-.144.22-.123.294 0a5.5 5.5 0 01.839 3.145 1.868 1.868 0 01-1.7 1.993 1.177 1.177 0 01-.16.011 1.162 1.162 0 01-.762-.306zm3.163-1.3c0-.311.049-.623.1-1.129a3.425 3.425 0 00-.479-2.568c-.1-.118.072-.167.216-.118a3.379 3.379 0 012.517 3.142c0 1.1-.552 1.68-1.465 1.68a1 1 0 01-.882-1.022zm2.881-.767a4.328 4.328 0 00-1.562-3.36c-.12-.1.049-.169.192-.144 2.688.575 3.578 1.919 3.578 3.288a1.253 1.253 0 01-.3.969 1.256 1.256 0 01-.923.424c-.642-.015-.978-.515-.978-1.192zm2.565-.744a3.437 3.437 0 00-2.16-2.978c-.118-.072-.046-.192.1-.192 3.234.074 4.34 1.585 4.34 2.952 0 .744-.359 1.465-1.247 1.465-.472-.015-.931-.328-1.025-1.262zm-8.976-4.83a15.209 15.209 0 001.56-.023c1.1-.049 2.064-.12 2.976-.167V80.87H3.8a18.44 18.44 0 00-2.45.169l-.238-.841a21.276 21.276 0 002.688.192h1.061v-2.783h-1.7v.6c0 .7-.434.888-1.272.888-.793 0-.888-.1-.888-.7 0-.48.12-2.665.12-5.93 0-1.991 0-2.711-.071-3.5a6.967 6.967 0 012.5 1.034h5.129c.815-1.1.89-1.154 1.057-1.154.144 0 .264.025 1.177.769.744.626.862.744.862.962 0 .167-.049.239-.646.744v2.063c0 1.824.144 3.6.144 4.2 0 .793-.408 1.08-1.681 1.08-.528 0-.623-.169-.623-.769v-.287h-1.8v2.783h.793c1.224-1.488 1.342-1.608 1.511-1.608.216 0 .287.026 1.2.89.649.623.744.767.744.936s-.071.264-.241.264H7.169v1.8c1.416-.144 2.737-.313 4.2-.5a.114.114 0 01.14.074.116.116 0 01-.067.144 68.618 68.618 0 01-9.337 3.328c-.144.5-.311.647-.526.647-.36-.017-.578-.402-1.248-3.329zm8.353-9.694c-.48.721-.983 1.465-1.727 2.593v1.177h2.016v-3.961c-.064.034-.164.105-.281.177zm-5.521 3.771h1.921v-2.065a1.014 1.014 0 01-.962.864c-.431 0-.648-.359-.648-.793 0-.311.074-.7.12-1.224a2.117 2.117 0 00-.431-1.536zm3.794-6.264v4.343c.189-.813.358-1.824.456-2.4.069-.408.1-.7.142-1.129a8.463 8.463 0 011.418.769v-1.97H7.308c-.015.131-.113.203-.351.372zm-3.794-.121v1.3a2.688 2.688 0 011.921 2.063v-2.565c0-.313 0-.7-.025-1.057H3.54a2.457 2.457 0 01-.377.244zm32.808 8.975c1.608-1.2 3.794-4.681 4.9-8.665.144-.552.241-.936.359-1.513 3.527 1.2 3.7 1.321 3.7 1.657 0 .313-.1.408-.913.647a10.984 10.984 0 01-1.3 2.375 3.9 3.9 0 002.113 1.682 8.6 8.6 0 001.462.408v-5.013c0-.89 0-1.634-.071-2.475h-6.459a21.626 21.626 0 00-2.737.169l-.238-.816c1.247.12 2.206.169 2.976.169h14.329c1.654-2.114 1.7-2.137 1.944-2.137s.311 0 1.631 1.272c.864.816.937.862.937 1.1a.234.234 0 01-.076.181.232.232 0 01-.188.058h-8.449c-.022.169-.144.29-.525.48v3.418h2.9c1.583-1.993 1.632-2.016 1.85-2.016.262 0 .311.023 1.583 1.224.815.769.864.816.864 1.034a.217.217 0 01-.062.178.211.211 0 01-.179.06H49.36v3.407c.815.023 1.774.046 2.878.046a43.213 43.213 0 006.746-.382c.144-.026.169.19.049.264a3.6 3.6 0 00-1.875 2.686.7.7 0 01-.67.623 33.042 33.042 0 01-3.771.072c-3.7 0-6.022-.554-7.585-1.56a5.8 5.8 0 01-2.686-3.745 16.854 16.854 0 01-6.336 5.328.164.164 0 01-.052.009.13.13 0 01-.087-.243zm4.92-12.91c0-.433.072-2.352.072-5.21 0-1.2 0-2.686-.072-3.671 2.643.528 3.291.793 3.458 1.008H50.7c1.126-1.3 1.2-1.344 1.462-1.344.241 0 .361.023 1.585.936 1.031.769 1.08.862 1.08 1.08 0 .192-.049.239-.623.721v2.16c0 2.088.12 3.1.12 3.527 0 .7-.721 1.08-2.137 1.08-.962 0-1.129-.144-1.129-.839V65.8h-7.151v.767c0 .7-.6 1.008-1.968 1.008-.833-.014-1.048-.181-1.048-.782zm3.024-1.492h7.154v-2.76h-7.154zm0-5.636v2.4h7.151V59.4h-6.767a2.308 2.308 0 01-.376.265zm-32.08 1.678c0-.672.216-3.671.216-11.4v-2.327h-1.134c.334.385.383.5.383.672 0 .218-.121.29-.48.29H7.044v4.776h.144c1.129-1.4 1.2-1.465 1.416-1.465.241 0 .385.07 1.465 1.031.743.647.888.841.888 1.057s-.047.287-.719.839v1.249c0 1.824.118 3.337.118 4.009 0 .718-.888 1.224-1.727 1.224-.888 0-1.1-.216-1.1-1.008v-.552H3.971v1.1c0 .744-.623 1.152-1.752 1.152-.862 0-1.031-.118-1.031-.934 0-.387.144-2.642.144-5.066 0-1.534 0-2.5-.071-3.673a8.549 8.549 0 012.952 1.034h.12v-4.772H2.964a14.851 14.851 0 00-2.422.167l-.218-.816a23.958 23.958 0 002.64.167h1.369v-1.678c0-1.08 0-1.752-.025-2.329-1.391.12-2.76.19-4.127.19-.144 0-.192-.239-.049-.262a29.366 29.366 0 007.441-2.952 4.3 4.3 0 00.746-.528c2.565 1.849 2.878 2.232 2.878 2.64 0 .385-.336.41-1.56.313-.7.1-1.393.192-2.064.264a.225.225 0 01.025.121c0 .239-.144.313-.554.528v3.7h.77c1.272-1.9 1.367-1.919 1.536-1.919.192 0 .287.072 1.126.959h1.563a63.862 63.862 0 00-.192-6.89c3 .408 3.742.7 3.742 1.01 0 .359-.215.526-.79.862v5.017h2.663a57.11 57.11 0 00-.192-6.864c2.952.359 3.96.647 3.96.959s-.215.554-.864.816v5.084c1.009-1.872 1.152-2.016 1.3-2.016s.24.049.887.913c.721.983.77 1.057.77 1.27s-.12.313-.407.313h-2.55v2.16c0 7.777.121 10.009.121 11.186 0 .7-.48 1.152-1.873 1.152-.937 0-1.151-.146-1.151-.936v-1.416H14.8v1.344c0 .816-.744 1.1-1.87 1.1-.956-.016-1.095-.254-1.095-.88zm2.971-2.06h2.665v-6.169h-2.665zM3.971 54.114v5.161h3.553V53.85H4.285a2.058 2.058 0 01-.306.25zm10.827-1.465h2.665v-5.017h-2.665zm21.381-1.36A13.68 13.68 0 0043.341 45a16.5 16.5 0 001.944-6.985h-4.153c-.839 0-1.777.049-3.145.169l-.241-.816c1.585.12 2.545.167 3.386.167h4.2c.072-.983.1-2.088.1-3.36 0-.911-.023-1.632-.049-2.232h-5.209c-.842 0-1.777.049-3.147.169l-.238-.816c1.585.118 2.544.169 3.383.169h13.467c1.847-2.139 1.993-2.3 2.231-2.3.29 0 .408.072 1.775 1.3 1.011.913 1.08 1.031 1.08 1.226 0 .167-.118.264-.311.264h-9.047c-.025.287-.146.48-.626.79 0 1.872-.049 3.434-.167 4.8h4.176c1.8-2.185 1.9-2.257 2.135-2.257.29 0 .456.118 1.657 1.224.887.816 1.1 1.057 1.1 1.249 0 .167-.121.264-.313.264l-8.49-.009a12.277 12.277 0 004.2 6.577 17.673 17.673 0 006.069 3.553c.146.049.12.19-.023.216-1.057.216-1.681.793-2.616 2.257-.288.431-.408.456-.649.456a1.967 1.967 0 01-.839-.362 13.08 13.08 0 01-4.943-5.3 16.568 16.568 0 01-1.536-6.936 14.423 14.423 0 01-2.186 6.744 15.092 15.092 0 01-9.983 6.29h-.021c-.139.003-.262-.193-.125-.237zM9.35 30.379c0-1.272.072-1.682 5.688-9.026h-2.783a16.68 16.68 0 00-2.351.169l-.243-.816a19.812 19.812 0 002.594.169h2.736c1.367-1.513 1.463-1.56 1.7-1.56.264 0 .407.072 1.367.888 1.08.936 1.2 1.1 1.2 1.321 0 .311-.023.406-1.775 1.3-4.345 4.992-5.089 6.023-5.089 6.551s.1.744 3.6.744c2.542 0 3.5-.287 4.055-.839a10.022 10.022 0 001.9-3.673c.047-.146.19-.1.19.049-.118 1.963-.142 2.637-.142 2.948a1.906 1.906 0 00.385 1.057 2.179 2.179 0 01.385 1.272c0 1.129-.721 1.919-7.226 1.919-5.512-.018-6.184-.952-6.184-2.489zM1.001 26.91c0-.674.1-4.466.1-7.921 0-2.762 0-4.1-.1-5.5 2.28.577 2.976.913 3.193 1.2h1.031c.96-1.247 1.057-1.319 1.272-1.319.241 0 .311 0 1.367.862.913.744.985.864.985 1.08 0 .241-.049.315-.7.864V18.7c0 3.937.144 5.689.144 6.315 0 .744-.479 1.175-1.993 1.175-.623 0-.815-.241-.815-.936v-.528H3.661v2.042c0 .718-.648 1.031-1.944 1.031-.493.001-.716-.122-.716-.889zm2.66-11.4v8.734H5.49v-9.07h-1.3a2.02 2.02 0 01-.527.332zm45.654 7.224c-1.1 0-2.209-.336-2.209-.841a2 2 0 01.241-.816 63.492 63.492 0 002.64-7.128h-6.959a21.745 21.745 0 00-2.881.167l-.218-.813a26.678 26.678 0 003.1.167h6.449c1.178-1.513 1.367-1.634 1.608-1.634.287 0 .479.121 1.8 1.272.815.7.888.841.888 1.057 0 .287-.1.433-1.031.864a58.2 58.2 0 01-2.471 7.175 1.08 1.08 0 01-.928.529zM8.371 21.246a31.334 31.334 0 002.639-8.232 15.685 15.685 0 00.265-1.872c3.84.89 4.056 1.129 4.056 1.416 0 .385-.167.5-1.08.793a25.842 25.842 0 01-1.845 3.312h5.926c1.775-2.329 1.872-2.4 2.113-2.4s.383.049 1.7 1.393c.815.816.936.962.936 1.177s-.1.311-.407.311H12.092a24.919 24.919 0 01-3.479 4.25.131.131 0 01-.093.036c-.098-.006-.201-.097-.147-.188zm27.77-8.065c2.593-1.752 5.858-6.144 7.921-11.089a9.873 9.873 0 00.667-2.088c3.843.769 4.2 1.057 4.2 1.393 0 .264-.241.433-.842.626a17.574 17.574 0 005.595 5.4 22.334 22.334 0 005.5 2.568c.142.049.116.167 0 .241a5.01 5.01 0 00-2.3 2.447c-.166.336-.287.408-.5.408a1.114 1.114 0 01-.528-.144 14.238 14.238 0 01-4.343-3.555 19.643 19.643 0 01-3.7-7.2A24.064 24.064 0 0136.29 13.444a.12.12 0 01-.039.006c-.128-.002-.216-.205-.108-.273zm6.523-3.455a21.276 21.276 0 002.688.192h2.137c1.438-1.824 1.56-1.9 1.7-1.9.192 0 .288.07 1.514 1.2.719.672.767.744.767.911s-.071.267-.24.267h-5.875a18.373 18.373 0 00-2.447.169z" fill="#3f5d45"/></svg>