<svg xmlns="http://www.w3.org/2000/svg" viewBox="0 0 189.912 58.826"><path d="M36.072 1.08c.792.528.984 1.488.984 3.048a1.3 1.3 0 001.368 1.416 1.78 1.78 0 001.7-1.92c0-1.392-1.464-2.64-3.96-2.76-.14 0-.212.144-.092.216zm1.368 14.856a2.981 2.981 0 01-1.392 2.472 1.515 1.515 0 00-.7 1.272 1.4 1.4 0 001.564 1.344 2.055 2.055 0 001.9-2.16 4.242 4.242 0 00-1.176-3c-.1-.12-.196-.072-.196.072zm2.064-.336c-.144-.048-.192.048-.12.168a5.128 5.128 0 01.336 3.1 1.094 1.094 0 001.128 1.244 1.467 1.467 0 001.464-1.464c0-1.056-.768-2.472-2.808-3.048zm6.048 2.376c0-1.3-1.008-2.376-3.12-2.712-.144-.024-.192.072-.1.168a3.585 3.585 0 01.72 2.76 1.017 1.017 0 001.1 1.128 1.4 1.4 0 001.4-1.344zm.7-.408a1.071 1.071 0 001.172 1.032 1.335 1.335 0 001.272-1.3c0-1.464-1.272-2.208-3.288-2.4-.144-.024-.192.12-.072.192.72.46.84 1.42.912 2.476zm3.264-3.768c.264-.888.528-1.7.744-2.5.6-.384.7-.48.7-.72 0-.192-.1-.288-.912-.936-.888-.7-1.08-.792-1.3-.792-.192 0-.288.048-1.344 1.128h-.36c.336-.936.672-1.968.912-2.712.7-.5.768-.576.768-.768s-.048-.288-.912-.912c-.984-.72-1.1-.768-1.32-.768-.168 0-.336.072-1.368 1.152h-1.512a34.5 34.5 0 001.1-3.36c.888-.168 1.128-.432 1.128-.768 0-.36-.384-.7-3.984-1.8a18.583 18.583 0 01-.576 3.24 39.61 39.61 0 01-.744 2.688h-3.6a26.739 26.739 0 01-3.072-.168l.24.816a21.07 21.07 0 012.832-.168h3.432a34.2 34.2 0 01-3.192 6.672 19.409 19.409 0 01-6.1 6.312c-.12.072-.048.288.1.24a19.743 19.743 0 007.56-5.4H49.8a13.386 13.386 0 01-1.08 4.56 1.661 1.661 0 01-1.56.816c-.72.048-1.272.072-2.568.048-.144 0-.144.216 0 .264 1.752.58 2.132 1.036 2.4 2.092.12.48.264.576.888.576a3.874 3.874 0 002.976-1.1c.72-.792 1.3-2.664 1.8-5.9.672-.456.768-.576.768-.816s-.1-.384-1.08-1.2c-1.056-.888-1.176-.912-1.416-.912-.192 0-.288.024-1.3 1.1zm-4.3-7.344c-.24.936-.624 2.088-1.08 3.528h-2.328a34.874 34.874 0 001.632-3.528zm2.28 4.008c-.216.936-.552 2.04-.936 3.336h-7.368a21.776 21.776 0 002.352-3.336zm16.2 5.712c-.048 3.336-.144 4.968-.144 5.592s.144.816 1.056.816c1.392 0 2.136-.36 2.136-1.032 0-.6-.048-2.088-.048-7.872V8.304c.6-.24.744-.408.744-.624 0-.288-.264-.48-1.776-1.032a25.779 25.779 0 002.424-3.864c.888-.24 1.08-.384 1.08-.744S68.856 1.464 65.4.072a13.019 13.019 0 01-.456 1.728c-1.56 4.56-3.552 8.472-5.28 10.416-.1.1.072.264.192.192a21.251 21.251 0 003.912-3.48zm12.528-7.008V1.752c.648-.36.888-.528.888-.792 0-.336-.288-.576-4.152-.912.12 1.3.144 2.04.144 9.12h-2.808c-.7 0-1.776-.048-2.952-.168l.24.816c1.128-.12 2.16-.168 2.712-.168h2.808c0 7.464-.168 11.424-.168 12.072 0 .768.24.864 1.3.864 1.512 0 2.112-.312 2.112-1.008 0-.624-.12-4.752-.12-11.928h6.312c.192 0 .312-.1.312-.264s-.048-.264-.936-1.152c-1.392-1.368-1.488-1.416-1.752-1.416-.24 0-.336.072-2.04 2.352zm27.744-2.52v1.08a12.823 12.823 0 00-2.256-.404 6.947 6.947 0 01.048.936 6.464 6.464 0 01-1.272 4.264c-.432-.12-.984-.24-1.632-.408a6.481 6.481 0 01-.168.84 30.009 30.009 0 01-.672 2.068 8.258 8.258 0 00-3.264-.144c-.144.024-.192.192-.048.24a4.093 4.093 0 012.376 2.832 1.159 1.159 0 001.244.84 1.658 1.658 0 001.68-1.632 1.966 1.966 0 00-.86-1.608c.744-.5 1.44-1.008 2.208-1.536.936-.144 1.2-.288 1.2-.6 0-.24-.192-.384-1.632-.768a5.45 5.45 0 002.76-4.124 1.6 1.6 0 00.288-.144c-.024 2.156-.072 3.544-.072 3.744 0 .6.12.72.816.72 1.032 0 1.512-.264 1.512-.84 0-.312-.072-2.208-.072-5.352h4.464c.24 0 .312-.072.312-.216 0-.168-.072-.288-.792-.936-.84-.768-.984-.84-1.176-.84-.216 0-.288.1-1.416 1.512h-1.392v-.936c.408-.216.528-.312.528-.528 0-.264-.36-.384-2.808-.576a13.859 13.859 0 01.1 2.04h-1.848c-.1-.12-.312-.312-.744-.72-.768-.7-.816-.72-1.008-.72s-.264.1-1.3 1.44h-.576v-.936c.408-.216.528-.312.528-.528 0-.264-.36-.384-2.736-.576a13.859 13.859 0 01.1 2.04h-.364a24.53 24.53 0 01-2.64-.168l.216.816a15.06 15.06 0 012.424-.172h.36V7.8a9.314 9.314 0 00-2.448-.48 6.947 6.947 0 01.048.936 7.547 7.547 0 01-1.1 4.608c.1-1.128.144-2.424.144-4.008v-4.9a1.877 1.877 0 00.456-.288h17.324c.192 0 .264-.1.264-.24 0-.216-.048-.312-.864-1.08-1.272-1.2-1.392-1.248-1.632-1.248s-.312.072-2.04 2.088h-4.68V1.652c.864-.384.984-.5.984-.792 0-.36-.456-.624-4.248-.864a16.088 16.088 0 01.144 2.592v.6H93.6c-.12-.264-.768-.456-3.456-1.128.168 1.92.24 3.528.24 7.3a54.024 54.024 0 01-.46 9.144 8.6 8.6 0 01-1.44 3.864.138.138 0 00.192.192 11.122 11.122 0 003.076-4.436 17.734 17.734 0 001.1-4.944 5.422 5.422 0 003.072-4.656 1.517 1.517 0 00.456-.264c-.024 2.208-.072 3.624-.072 3.816 0 .6.12.72.816.72.96 0 1.44-.264 1.44-.84 0-.312-.072-2.208-.072-5.3zm-3.044 1.776c.384-.192.456-.264.456-.432 0-.24-.24-.336-2.328-.576.024.432.024.888.024 1.584 0 .96-.048 1.608-.048 1.968 0 .384.168.576.648.576.84 0 1.248-.144 1.248-.672zm3.812 8.88a.128.128 0 00-.072.24 4.227 4.227 0 011.728 1.656c-1.9.024-3.624.048-5.352.048 1.776-1.248 3.048-2.208 4.728-3.5.936-.1 1.248-.216 1.248-.528 0-.384-.168-.5-3.648-1.752a11.2 11.2 0 01-.6 1.3 36.314 36.314 0 01-2.76 4.488c-1.8 0-3.624-.048-5.664-.1-.84-.024-1.152-.048-1.92-.1 1.008 3.408 1.152 3.6 1.464 3.6.216 0 .312-.1.552-.552 5.712-.912 8.328-1.344 12.36-2.088a6.582 6.582 0 01.408 1.272 1.4 1.4 0 001.416 1.224 1.768 1.768 0 001.8-1.8c0-1.608-1.536-3.388-5.688-3.408zm3.888-8.832c.5-.24.576-.336.576-.528 0-.24-.456-.36-2.472-.528.048.576.048 1.1.048 1.752 0 .984-.048 1.7-.048 2.112 0 .5.336.864 2.208.864 2.04 0 2.592-.48 2.592-1.032a1.062 1.062 0 00-.36-.84.778.778 0 01-.264-.624c0-.288.024-.84.1-1.608.024-.144-.12-.192-.168-.048a11.051 11.051 0 01-.816 1.872c-.216.384-.384.432-.864.432s-.528-.072-.528-.408zm32.4 4.416h-24v.768h24zm24 0h-24v.768h24zM18.36 37.872V39.6h-1.036a7.444 7.444 0 00-2.472-.84c.048 1.1.048 1.92.048 2.376 0 .672-.024 1.32-.024 1.824 0 1.08.408 1.512 3.264 1.512 3.264 0 3.888-.5 3.888-1.3a1.462 1.462 0 00-.312-.84 1.523 1.523 0 01-.12-.672 7.6 7.6 0 01.24-1.488c.024-.144-.12-.216-.192-.1a7.242 7.242 0 01-.912 1.416c-.6.744-1.056.96-2.616.96-1.032 0-1.176-.192-1.176-.72v-1.456a1.233 1.233 0 00.336-.192h1.08v.5c0 .408.24.672.912.672 1.008 0 1.512-.336 1.512-.816 0-.36-.072-1.032-.072-1.368v-.456c.5-.384.552-.456.552-.648 0-.216-.048-.312-.72-.888-.792-.7-.888-.72-1.152-.72-.168 0-.24.024-1.128 1.032h-.888a23.909 23.909 0 01-2.828-.164l.24.816a19.588 19.588 0 012.592-.168zm-7.464 0V39.6h-.984a7.715 7.715 0 00-2.4-.84c.048 1.1.048 1.92.048 2.376 0 .672-.024 1.32-.024 1.824 0 1.08.408 1.512 3.288 1.512 2.856 0 3.48-.6 3.48-1.392a1.462 1.462 0 00-.312-.84 1.363 1.363 0 01-.12-.624 11.056 11.056 0 01.24-1.488c.024-.144-.144-.192-.192-.1a6.6 6.6 0 01-.912 1.512 2.174 2.174 0 01-2.208.96c-1.152 0-1.3-.192-1.3-.72v-1.508a1.233 1.233 0 00.336-.192h1.056v.5c0 .408.264.672.96.672 1.008 0 1.368-.336 1.368-.816 0-.36-.072-1.032-.072-1.368v-.456c.456-.384.552-.456.552-.648 0-.24-.048-.336-.672-.864-.816-.672-.912-.7-1.128-.7-.168 0-.24.048-1.056.984H9.812a23.909 23.909 0 01-2.828-.16l.24.816a19.588 19.588 0 012.592-.168zm-9.12-.936a4.048 4.048 0 011.392 3.048c.072 1.176.456 1.8 1.416 1.8a1.648 1.648 0 001.824-1.8c0-1.536-1.416-2.952-4.44-3.288-.144-.024-.312.144-.192.24zm20.3 13.56c.192 0 .264-.1.264-.24 0-.216-.048-.264-.816-1.008-.912-.888-1.032-.936-1.248-.936-.192 0-.24.048-1.56 1.7h-1.152v-2.324h3.72a.234.234 0 00.24-.264c0-.168-.144-.312-.816-.984-.816-.84-.864-.864-1.056-.864-.168 0-.216.024-1.488 1.632h-.6v-1.2c.456-.312.552-.456.552-.672 0-.336-.336-.5-3.144-.7.072 1.008.1 1.536.1 2.568h-2.184v-1.2c.5-.312.6-.456.6-.672 0-.336-.336-.48-3.144-.7.072 1.008.1 1.536.1 2.568h-.12a24.53 24.53 0 01-2.64-.168l.216.816a15.061 15.061 0 012.424-.168h.12v2.328h-.432a26.954 26.954 0 01-2.9-.168l.216.816c1.392-.12 1.968-.168 2.688-.168h1.272c-.1.144-.168.264-.24.384a9.954 9.954 0 01-3.896 3.152 4.384 4.384 0 01-.768-.84v-5.66c.648-.528.768-.648.768-.84 0-.312-.1-.432-1.176-1.368-.816-.72-.912-.768-1.176-.768-.24 0-.336.144-1.536 1.56h-.768a14.4 14.4 0 01-2.352-.168l.216.816a10.968 10.968 0 012.136-.168h1.056v6.768a19.356 19.356 0 01-2.112.912A12.7 12.7 0 010 54.7c1.344 2.9 1.7 3.288 1.992 3.288.264 0 .432-.192.7-.84a28.273 28.273 0 003.36-3.408 5.173 5.173 0 001.728 2.832c1.224 1.008 2.4 1.32 7.872 1.32 3.576 0 4.656-.048 5.28-.12.5-.024.672-.288.744-.84a3.35 3.35 0 011.412-2.208c.12-.1.072-.288-.072-.264a88.233 88.233 0 01-9.984.6 17.254 17.254 0 01-4.728-.36 2.652 2.652 0 01-.912-.5 14.532 14.532 0 005.664-1.752c.96-.024 1.1-.12 1.1-.456 0-.264-.336-.5-2.016-1.488zm-9.192-2.808h2.184v2.328h-2.184zm2.14 3.236c-.144 0-.216.216-.072.264a7.074 7.074 0 013.1 2.4c.528.72.888.888 1.392.888a1.189 1.189 0 001.248-1.224c-.004-.98-1.132-2.396-5.668-2.328zm19.608-8.832h2.544a.341.341 0 00.144-.048v.12c0 .7.1.792.768.792 1.056 0 1.56-.192 1.56-.888v-.24h7.9c0 .576.216.744.936.744.912 0 1.584-.288 1.584-1.08 0-.6-.144-1.656-.144-2.448v-.456c.576-.48.648-.552.648-.744 0-.216-.072-.336-.864-.96-.888-.72-1.032-.744-1.224-.744-.216 0-.288.072-1.2 1.128h-7.248a8.148 8.148 0 00-2.688-.768c.072.792.1 1.536.1 2.424 0 1.056-.048 1.968-.1 2.568-.072-.12-.216-.336-.48-.72-.7-1.008-.768-1.032-.96-1.032-.216 0-.264.048-1.272 1.824v-3.6c.672-.36.84-.528.84-.816 0-.408-.648-.624-3.648-.888a37.716 37.716 0 01.168 5.352h-.36a19.588 19.588 0 01-2.592-.168l.24.816a16.547 16.547 0 012.352-.168h.36v4.9l-1.032.24c-.84.192-1.488.312-2.136.408 1.176 3.36 1.272 3.408 1.56 3.408.24 0 .36-.12.552-.672l1.056-.744v4.56c0 .792-.216 1.128-.768 1.2-.672.1-1.2.144-2.112.192-.144 0-.144.192 0 .24 1.488.5 1.944 1.2 2.16 2.016.12.48.288.624.672.624a3.024 3.024 0 001.632-.5 2.535 2.535 0 001.176-2.328c0-.768-.1-1.872-.12-7.608.912-.7 1.92-1.464 2.952-2.232a.136.136 0 00-.12-.24c-1.032.312-1.9.576-2.832.816zm9.5-.744h-1.2v-3.164c.264-.192.36-.264.36-.432h.816c.024.36.024.768.024 1.1zm3.408-3.6v3.6h-1.272v-3.164c.264-.192.36-.264.36-.432zm-6.7 0c.024.36.024.768.024 1.1v2.5H39.64V38.04a1.816 1.816 0 00.408-.288zm3.84 9.36v-2.252h4.92c.168 0 .24-.048.24-.216s-.1-.24-.792-.936c-.912-.912-1.008-.96-1.2-.96s-.24.048-1.584 1.632H44.68v-.768c.672-.264.816-.432.816-.7 0-.384-.384-.528-3.744-.792a17.973 17.973 0 01.12 2.256h-1.748a21.149 21.149 0 01-2.688-.192l.24.84a18.422 18.422 0 012.448-.168h1.752v2.256h-2.972a24.53 24.53 0 01-2.64-.168l.216.816a15.06 15.06 0 012.424-.168h.528c.528.312.576 1.032.552 2.016-.024.768.24 1.2.792 1.344H39a24.53 24.53 0 01-2.64-.168l.216.816A15.061 15.061 0 0139 51.428h2.88c.024.648.024 1.488.024 2.688h-2.352a24.53 24.53 0 01-2.64-.168l.216.816a15.06 15.06 0 012.424-.168h2.352c0 1.512-.1 2.808-.1 3.144 0 .624.12.816.96.816 1.512 0 2.016-.384 2.016-1.056 0-.264-.072-1.416-.072-2.9h5.5c.144 0 .24-.048.24-.216s-.048-.24-.864-1.08c-.936-.96-1.008-.984-1.224-.984s-.264.024-1.656 1.8h-1.992v-2.16c.312-.192.384-.288.384-.528h5.952c.144 0 .24-.048.24-.216s-.048-.24-.888-1.08c-.888-.912-.96-.936-1.176-.936s-.264.024-1.68 1.752h-2.42c.528-.48 1.032-.936 1.968-1.776.672-.144.792-.24.792-.48s-.144-.408-2.28-1.1h5.664c.144 0 .24-.048.24-.216s-.024-.216-.888-1.08-.936-.888-1.176-.888c-.192 0-.24.024-1.632 1.7zm-3.12 3.84a1.307 1.307 0 00.96-1.32c0-.864-.552-1.728-2.424-2.04h4.7a8.205 8.205 0 01-.12.936c-.144.816-.312 1.56-.528 2.424zm21.6-12.792c-.84 0-1.728-.048-3.312-.168l.24.816c1.368-.12 2.232-.168 3.072-.168h9.768a65.695 65.695 0 01-2.784 4.272 52.07 52.07 0 00-2.784-.336 32.806 32.806 0 01.168 4.872v6.432c0 .648-.264 1.032-1.056 1.128a20.583 20.583 0 01-3.144.048c-.144 0-.144.216 0 .264 1.872.528 2.328 1.3 2.664 2.424a.755.755 0 00.816.624 5.449 5.449 0 002.664-.6 2.712 2.712 0 001.472-2.64c0-.84-.168-4.392-.168-7.92v-2.708c.96-.5 1.056-.624 1.056-.888 0-.192-.072-.336-.672-.48 1.9-.984 3.576-1.9 5.3-2.784 1.512-.336 1.68-.432 1.68-.816 0-.24-.12-.432-1.128-1.3-1.92-1.656-2.064-1.68-2.352-1.68-.24 0-.36.072-1.872 1.608zm25.496 13.66c-.048 3.576-.144 5.208-.144 5.832s.144.816 1.056.816c1.176 0 1.776-.36 1.776-1.032 0-.6-.048-2.088-.048-7.848v-5.376c.6-.24.744-.408.744-.624 0-.264-.264-.48-1.536-1.008a25.326 25.326 0 001.944-4.008c.912-.264 1.1-.48 1.1-.768 0-.312-.168-.6-3.648-1.824-.072.6-.192 1.176-.312 1.728-1.032 4.656-2.4 8.448-3.624 10.344-.072.12.1.288.216.192a15.98 15.98 0 002.544-2.952zm8.76 1.872v.576c0 .624.168.792.792.792 1.2 0 1.848-.288 1.848-.96 0-.432-.1-1.92-.1-4.056v-1.584c.552-.384.648-.456.648-.648 0-.168-.048-.288-.648-.84-1.008-.912-1.08-.936-1.3-.936-.168 0-.264.048-1.128 1.08v-4.776h2.672c.168 0 .264-.072.264-.216 0-.12-.048-.216-.552-.84-.792-.984-.864-1.008-1.056-1.008-.168 0-.216.024-1.2 1.584h-.12V38.04c.768-.36.888-.552.888-.792 0-.336-.336-.552-3.6-.936a41.223 41.223 0 01.12 4.2v1.344h-.36a19.272 19.272 0 01-2.568-.168l.24.816c1.128-.12 1.9-.168 2.328-.168h.36v4.7a12.55 12.55 0 00-2.232-.7c.072 1.272.072 1.728.072 3.576 0 2.976-.168 5.16-.168 5.568 0 .7.1.84.984.84 1.1 0 1.584-.336 1.584-.96v-1.68zm-2.232-.48v-5.256a1.094 1.094 0 00.288-.312h1.944v5.568zm13.968-11.112a.252.252 0 00.264-.264c0-.24-.12-.384-.84-1.1-.912-.936-1.032-.96-1.2-.96-.192 0-.264.048-1.56 1.848h-3.072a22.052 22.052 0 001.44-3.648c.7-.216.792-.384.792-.672 0-.36-.384-.5-3.552-1.344a25.83 25.83 0 01-.1 1.584c-.432 4.248-1.128 7.032-1.944 8.52-.072.12.12.264.216.168a12.938 12.938 0 001.8-2.256 29.851 29.851 0 00.792 8.424 12.624 12.624 0 01-6.1 6.192c-.144.048-.024.264.12.24a13.131 13.131 0 007.016-4.348 13.939 13.939 0 003.048 3.48 1.185 1.185 0 00.744.336c.168 0 .312-.192.456-.48a3.459 3.459 0 011.9-1.92c.144-.048.168-.192.048-.264a16.227 16.227 0 01-4.612-3.648 25.622 25.622 0 001.968-8.112c.7-.24.84-.384.84-.6 0-.288-.5-.624-2.472-1.176zm-5.064 0a35.933 35.933 0 01-.912 7.512 20.238 20.238 0 01-1.272-6.484c.192-.336.384-.672.576-1.032zm31.272-3.912c.648-.264.864-.5.864-.816s-1.008-.6-3.96-.96a57.544 57.544 0 01.192 6.864h-2.664v-5.016c.576-.336.792-.5.792-.864 0-.312-.744-.6-3.744-1.008a63.43 63.43 0 01.192 6.888h-1.56c-.84-.888-.936-.96-1.128-.96-.168 0-.264.024-1.536 1.92h-.768v-3.7c.408-.216.552-.288.552-.528a.216.216 0 00-.024-.12c.672-.072 1.368-.168 2.064-.264 1.224.1 1.56.072 1.56-.312 0-.408-.312-.792-2.88-2.64a4.158 4.158 0 01-.744.528 29.359 29.359 0 01-7.44 2.952c-.144.024-.1.264.048.264 1.368 0 2.736-.072 4.128-.192.024.576.024 1.248.024 2.328v1.68h-1.368a24.53 24.53 0 01-2.64-.168l.216.816a15.061 15.061 0 012.424-.168h1.364v4.776h-.12a8.528 8.528 0 00-2.952-1.032c.072 1.176.072 2.136.072 3.672 0 2.424-.144 4.68-.144 5.064 0 .816.168.936 1.032.936 1.128 0 1.752-.408 1.752-1.152v-1.1h3.56v.552c0 .792.216 1.008 1.1 1.008.84 0 1.728-.5 1.728-1.224 0-.672-.12-2.184-.12-4.008v-1.248c.672-.552.72-.624.72-.84s-.144-.408-.888-1.056c-1.08-.96-1.224-1.032-1.464-1.032-.216 0-.288.072-1.416 1.464h-.144v-4.776h3.768c.36 0 .48-.072.48-.288 0-.168-.048-.288-.384-.672h1.128v2.328c0 7.728-.216 10.728-.216 11.4 0 .624.144.864 1.1.864 1.128 0 1.872-.288 1.872-1.1v-1.348h2.664v1.416c0 .792.216.936 1.152.936 1.392 0 1.872-.456 1.872-1.152 0-1.176-.12-3.408-.12-11.184v-2.16h2.548c.288 0 .408-.1.408-.312s-.048-.288-.768-1.272c-.648-.864-.744-.912-.888-.912s-.288.144-1.3 2.016zm-2.9 5.568v5.016h-2.668v-5.016zm-2.668 11.664v-6.168h2.664v6.168zm-10.824-.024v-5.16a1.948 1.948 0 00.312-.264h3.244v5.424zm27.024-2.232a3.492 3.492 0 01-1.1 2.712c-.624.6-.792.888-.792 1.248a1.164 1.164 0 001.32 1.176 1.868 1.868 0 001.7-1.992 5.483 5.483 0 00-.84-3.144c-.072-.12-.288-.144-.288 0zm1.488-.264c-.144-.048-.312 0-.216.12a3.42 3.42 0 01.48 2.568c-.048.5-.1.816-.1 1.128a1 1 0 00.888 1.008c.912 0 1.464-.576 1.464-1.68a3.379 3.379 0 00-2.516-3.144zm1.68-.456c-.144-.024-.312.048-.192.144a4.322 4.322 0 011.56 3.36c0 .672.336 1.176.984 1.176a1.248 1.248 0 001.224-1.396c0-1.364-.888-2.708-3.576-3.284zm1.872-.408c-.144 0-.216.12-.1.192a3.438 3.438 0 012.16 2.976c.1.936.552 1.248 1.032 1.248.888 0 1.248-.72 1.248-1.464.004-1.368-1.1-2.88-4.34-2.952zm-3.696-14.708a7 7 0 00-2.5-1.032c.072.792.072 1.512.072 3.5 0 3.264-.12 5.448-.12 5.928 0 .6.1.7.888.7.84 0 1.272-.192 1.272-.888v-.6h1.7v2.784H147.6a21.149 21.149 0 01-2.688-.192l.24.84a18.422 18.422 0 012.448-.168h1.056v1.988c-.912.048-1.872.12-2.976.168a15.193 15.193 0 01-1.56.024c.672 2.928.888 3.312 1.248 3.312.216 0 .384-.144.528-.648a68.5 68.5 0 009.336-3.336.114.114 0 00-.072-.216c-1.464.192-2.784.36-4.2.5v-1.8h4.008c.168 0 .24-.1.24-.264s-.1-.312-.744-.936c-.912-.864-.984-.888-1.2-.888-.168 0-.288.12-1.512 1.608h-.792v-2.784h1.8v.288c0 .6.1.768.624.768 1.272 0 1.68-.288 1.68-1.08 0-.6-.144-2.376-.144-4.2v-2.06c.6-.5.648-.576.648-.744 0-.216-.12-.336-.864-.96-.912-.744-1.032-.768-1.176-.768-.168 0-.24.048-1.056 1.152zm3.408 7.128v-1.18c.744-1.128 1.248-1.872 1.728-2.592.12-.072.216-.144.288-.192v3.96zm-3.792-4.752a2.121 2.121 0 01.432 1.536c-.048.528-.12.912-.12 1.224 0 .432.216.792.648.792a1.014 1.014 0 00.96-.864v2.064h-1.92zm0-1.632a2.447 2.447 0 00.384-.264h1.512c.024.36.024.744.024 1.056v2.564a2.687 2.687 0 00-1.92-2.064zm5.808 1.7a8.522 8.522 0 00-1.416-.768c-.048.432-.072.72-.144 1.128-.1.576-.264 1.584-.456 2.4v-4.344c.24-.168.336-.24.36-.384h1.656zm8.928 2.424v-4.468c.672-.312.84-.48.84-.72 0-.36-.36-.672-3.744-.912a39.586 39.586 0 01.168 4.68v7.512h-.36c-.24-.24-.936-.48-2.976-1.08a35.544 35.544 0 01.1 3.72c0 3.672-.12 6.24-.12 6.624 0 .816.072.936.936.936 1.368 0 1.776-.408 1.776-1.152v-.864h4.656v.816c0 .792.12.912.96.912 1.1 0 1.944-.408 1.944-1.128 0-.936-.12-3.048-.12-4.872v-2.42c.624-.528.744-.648.744-.888s-.144-.36-1.08-1.176c-.888-.768-1.128-.912-1.416-.912-.216 0-.336.072-1.416 1.488h-.888v-5.616h5.064c.192 0 .312-.1.312-.264 0-.192-.12-.336-.888-1.1-.936-.936-1.176-1.1-1.416-1.1-.216 0-.384.144-1.776 1.992zm-3.384 13.8v-6.96a1.058 1.058 0 00.288-.264h4.368v7.224zm26.3-9.528c-1.1 1.608-1.3 2.352-1.3 4.992 0 .168.072.288.24.288a.549.549 0 00.552-.456 3 3 0 01-.12-.768c0-1.32.36-1.872 2.184-3.312 3-2.376 3.744-3.648 3.744-5.688 0-2.664-2.088-4.536-5.64-4.536-3.1 0-5.856 2.16-5.856 4.464a1.752 1.752 0 001.8 1.848 1.707 1.707 0 001.824-1.8 1.842 1.842 0 00-.816-1.416.724.724 0 01-.36-.672c0-.864 1.128-1.776 2.5-1.776 1.656 0 2.928 1.152 2.928 3.936a7.4 7.4 0 01-1.676 4.896zm-.912 7.2a1.956 1.956 0 101.944 1.944 1.972 1.972 0 00-1.94-1.944z" fill="#3f5d45"/></svg>